ISO-10303-21;
HEADER;
FILE_DESCRIPTION(('FreeCAD Model'),'2;1');
FILE_NAME('Open CASCADE Shape Model','2025-11-29T12:15:56',(''),(''),
  'Open CASCADE STEP processor 7.8','FreeCAD','Unknown');
FILE_SCHEMA(('AUTOMOTIVE_DESIGN { 1 0 10303 214 1 1 1 1 }'));
ENDSEC;
DATA;
#1 = APPLICATION_PROTOCOL_DEFINITION('international standard',
  'automotive_design',2000,#2);
#2 = APPLICATION_CONTEXT(
  'core data for automotive mechanical design processes');
#3 = SHAPE_DEFINITION_REPRESENTATION(#4,#10);
#4 = PRODUCT_DEFINITION_SHAPE('','',#5);
#5 = PRODUCT_DEFINITION('design','',#6,#9);
#6 = PRODUCT_DEFINITION_FORMATION('','',#7);
#7 = PRODUCT('SG90','SG90','',(#8));
#8 = PRODUCT_CONTEXT('',#2,'mechanical');
#9 = PRODUCT_DEFINITION_CONTEXT('part definition',#2,'design');
#10 = ADVANCED_BREP_SHAPE_REPRESENTATION('',(#11,#15),#1567);
#11 = AXIS2_PLACEMENT_3D('',#12,#13,#14);
#12 = CARTESIAN_POINT('',(0.,0.,0.));
#13 = DIRECTION('',(0.,0.,1.));
#14 = DIRECTION('',(1.,0.,-0.));
#15 = MANIFOLD_SOLID_BREP('',#16);
#16 = CLOSED_SHELL('',(#17,#57,#124,#149,#174,#283,#354,#379,#404,#503,
    #602,#627,#651,#675,#710,#734,#758,#776,#848,#873,#905,#930,#974,
    #999,#1100,#1125,#1210,#1227,#1244,#1261,#1278,#1295,#1312,#1329,
    #1346,#1358,#1367,#1377,#1386,#1398,#1411,#1444,#1468,#1493,#1510,
    #1533,#1558));
#17 = ADVANCED_FACE('',(#18),#52,.T.);
#18 = FACE_BOUND('',#19,.T.);
#19 = EDGE_LOOP('',(#20,#30,#38,#46));
#20 = ORIENTED_EDGE('',*,*,#21,.T.);
#21 = EDGE_CURVE('',#22,#24,#26,.T.);
#22 = VERTEX_POINT('',#23);
#23 = CARTESIAN_POINT('',(0.,-1.,0.));
#24 = VERTEX_POINT('',#25);
#25 = CARTESIAN_POINT('',(0.,-11.6,3.E-15));
#26 = LINE('',#27,#28);
#27 = CARTESIAN_POINT('',(0.,0.,0.));
#28 = VECTOR('',#29,1.);
#29 = DIRECTION('',(0.,-1.,2.2E-16));
#30 = ORIENTED_EDGE('',*,*,#31,.T.);
#31 = EDGE_CURVE('',#24,#32,#34,.T.);
#32 = VERTEX_POINT('',#33);
#33 = CARTESIAN_POINT('',(0.,-11.6,15.500000000027));
#34 = LINE('',#35,#36);
#35 = CARTESIAN_POINT('',(-2.2E-16,-11.6,2.66E-15));
#36 = VECTOR('',#37,1.);
#37 = DIRECTION('',(0.,2.2E-16,1.));
#38 = ORIENTED_EDGE('',*,*,#39,.F.);
#39 = EDGE_CURVE('',#40,#32,#42,.T.);
#40 = VERTEX_POINT('',#41);
#41 = CARTESIAN_POINT('',(0.,-1.,15.500000000027));
#42 = LINE('',#43,#44);
#43 = CARTESIAN_POINT('',(0.,3.44E-15,15.500000000027));
#44 = VECTOR('',#45,1.);
#45 = DIRECTION('',(0.,-1.,2.2E-16));
#46 = ORIENTED_EDGE('',*,*,#47,.F.);
#47 = EDGE_CURVE('',#22,#40,#48,.T.);
#48 = LINE('',#49,#50);
#49 = CARTESIAN_POINT('',(-2.2E-16,-1.,0.));
#50 = VECTOR('',#51,1.);
#51 = DIRECTION('',(0.,2.2E-16,1.));
#52 = PLANE('',#53);
#53 = AXIS2_PLACEMENT_3D('',#54,#55,#56);
#54 = CARTESIAN_POINT('',(0.,0.,0.));
#55 = DIRECTION('',(-1.,0.,0.));
#56 = DIRECTION('',(0.,2.2E-16,1.));
#57 = ADVANCED_FACE('',(#58),#119,.T.);
#58 = FACE_BOUND('',#59,.T.);
#59 = EDGE_LOOP('',(#60,#70,#79,#87,#94,#95,#104,#112));
#60 = ORIENTED_EDGE('',*,*,#61,.T.);
#61 = EDGE_CURVE('',#62,#64,#66,.T.);
#62 = VERTEX_POINT('',#63);
#63 = CARTESIAN_POINT('',(22.8,-1.,0.));
#64 = VERTEX_POINT('',#65);
#65 = CARTESIAN_POINT('',(22.8,-11.6,2.E-15));
#66 = LINE('',#67,#68);
#67 = CARTESIAN_POINT('',(22.8,0.,0.));
#68 = VECTOR('',#69,1.);
#69 = DIRECTION('',(0.,-1.,2.2E-16));
#70 = ORIENTED_EDGE('',*,*,#71,.F.);
#71 = EDGE_CURVE('',#72,#64,#74,.T.);
#72 = VERTEX_POINT('',#73);
#73 = CARTESIAN_POINT('',(21.8,-12.6,4.E-15));
#74 = CIRCLE('',#75,1.);
#75 = AXIS2_PLACEMENT_3D('',#76,#77,#78);
#76 = CARTESIAN_POINT('',(21.8,-11.6,1.78E-15));
#77 = DIRECTION('',(0.,2.2E-16,1.));
#78 = DIRECTION('',(0.,1.,-2.2E-16));
#79 = ORIENTED_EDGE('',*,*,#80,.T.);
#80 = EDGE_CURVE('',#72,#81,#83,.T.);
#81 = VERTEX_POINT('',#82);
#82 = CARTESIAN_POINT('',(1.,-12.6,3.E-15));
#83 = LINE('',#84,#85);
#84 = CARTESIAN_POINT('',(22.8,-12.6,3.E-15));
#85 = VECTOR('',#86,1.);
#86 = DIRECTION('',(-1.,0.,0.));
#87 = ORIENTED_EDGE('',*,*,#88,.F.);
#88 = EDGE_CURVE('',#24,#81,#89,.T.);
#89 = CIRCLE('',#90,1.);
#90 = AXIS2_PLACEMENT_3D('',#91,#92,#93);
#91 = CARTESIAN_POINT('',(1.,-11.6,2.58E-15));
#92 = DIRECTION('',(-0.,2.2E-16,1.));
#93 = DIRECTION('',(0.,-1.,2.2E-16));
#94 = ORIENTED_EDGE('',*,*,#21,.F.);
#95 = ORIENTED_EDGE('',*,*,#96,.T.);
#96 = EDGE_CURVE('',#22,#97,#99,.T.);
#97 = VERTEX_POINT('',#98);
#98 = CARTESIAN_POINT('',(1.,3.E-15,0.));
#99 = CIRCLE('',#100,1.);
#100 = AXIS2_PLACEMENT_3D('',#101,#102,#103);
#101 = CARTESIAN_POINT('',(1.,-1.,2.2E-16));
#102 = DIRECTION('',(-0.,-2.2E-16,-1.));
#103 = DIRECTION('',(0.,-1.,2.2E-16));
#104 = ORIENTED_EDGE('',*,*,#105,.F.);
#105 = EDGE_CURVE('',#106,#97,#108,.T.);
#106 = VERTEX_POINT('',#107);
#107 = CARTESIAN_POINT('',(21.8,-1.E-15,0.));
#108 = LINE('',#109,#110);
#109 = CARTESIAN_POINT('',(22.8,0.,0.));
#110 = VECTOR('',#111,1.);
#111 = DIRECTION('',(-1.,0.,0.));
#112 = ORIENTED_EDGE('',*,*,#113,.T.);
#113 = EDGE_CURVE('',#106,#62,#114,.T.);
#114 = CIRCLE('',#115,1.);
#115 = AXIS2_PLACEMENT_3D('',#116,#117,#118);
#116 = CARTESIAN_POINT('',(21.8,-1.,0.));
#117 = DIRECTION('',(0.,-2.2E-16,-1.));
#118 = DIRECTION('',(0.,1.,-2.2E-16));
#119 = PLANE('',#120);
#120 = AXIS2_PLACEMENT_3D('',#121,#122,#123);
#121 = CARTESIAN_POINT('',(22.8,0.,0.));
#122 = DIRECTION('',(-0.,-2.2E-16,-1.));
#123 = DIRECTION('',(-1.,0.,0.));
#124 = ADVANCED_FACE('',(#125),#144,.T.);
#125 = FACE_BOUND('',#126,.F.);
#126 = EDGE_LOOP('',(#127,#128,#136,#143));
#127 = ORIENTED_EDGE('',*,*,#96,.T.);
#128 = ORIENTED_EDGE('',*,*,#129,.T.);
#129 = EDGE_CURVE('',#97,#130,#132,.T.);
#130 = VERTEX_POINT('',#131);
#131 = CARTESIAN_POINT('',(1.,6.E-15,15.500000000027));
#132 = LINE('',#133,#134);
#133 = CARTESIAN_POINT('',(1.,2.89E-15,-2.2E-16));
#134 = VECTOR('',#135,1.);
#135 = DIRECTION('',(0.,2.2E-16,1.));
#136 = ORIENTED_EDGE('',*,*,#137,.F.);
#137 = EDGE_CURVE('',#40,#130,#138,.T.);
#138 = CIRCLE('',#139,1.);
#139 = AXIS2_PLACEMENT_3D('',#140,#141,#142);
#140 = CARTESIAN_POINT('',(1.,-1.,15.500000000027));
#141 = DIRECTION('',(-0.,-2.2E-16,-1.));
#142 = DIRECTION('',(0.,-1.,2.2E-16));
#143 = ORIENTED_EDGE('',*,*,#47,.F.);
#144 = CYLINDRICAL_SURFACE('',#145,1.);
#145 = AXIS2_PLACEMENT_3D('',#146,#147,#148);
#146 = CARTESIAN_POINT('',(1.,-1.,0.));
#147 = DIRECTION('',(0.,2.2E-16,1.));
#148 = DIRECTION('',(-1.,0.,0.));
#149 = ADVANCED_FACE('',(#150),#169,.T.);
#150 = FACE_BOUND('',#151,.T.);
#151 = EDGE_LOOP('',(#152,#153,#161,#168));
#152 = ORIENTED_EDGE('',*,*,#88,.T.);
#153 = ORIENTED_EDGE('',*,*,#154,.T.);
#154 = EDGE_CURVE('',#81,#155,#157,.T.);
#155 = VERTEX_POINT('',#156);
#156 = CARTESIAN_POINT('',(1.,-12.6,15.500000000027));
#157 = LINE('',#158,#159);
#158 = CARTESIAN_POINT('',(1.,-12.6,2.89E-15));
#159 = VECTOR('',#160,1.);
#160 = DIRECTION('',(0.,2.2E-16,1.));
#161 = ORIENTED_EDGE('',*,*,#162,.F.);
#162 = EDGE_CURVE('',#32,#155,#163,.T.);
#163 = CIRCLE('',#164,1.);
#164 = AXIS2_PLACEMENT_3D('',#165,#166,#167);
#165 = CARTESIAN_POINT('',(1.,-11.6,15.500000000027));
#166 = DIRECTION('',(-0.,2.2E-16,1.));
#167 = DIRECTION('',(0.,-1.,2.2E-16));
#168 = ORIENTED_EDGE('',*,*,#31,.F.);
#169 = CYLINDRICAL_SURFACE('',#170,1.);
#170 = AXIS2_PLACEMENT_3D('',#171,#172,#173);
#171 = CARTESIAN_POINT('',(1.,-11.6,2.66E-15));
#172 = DIRECTION('',(0.,2.2E-16,1.));
#173 = DIRECTION('',(-1.,0.,0.));
#174 = ADVANCED_FACE('',(#175),#278,.T.);
#175 = FACE_BOUND('',#176,.T.);
#176 = EDGE_LOOP('',(#177,#187,#193,#194,#195,#196,#204,#212,#221,#229,
    #237,#246,#255,#263,#271));
#177 = ORIENTED_EDGE('',*,*,#178,.F.);
#178 = EDGE_CURVE('',#179,#181,#183,.T.);
#179 = VERTEX_POINT('',#180);
#180 = CARTESIAN_POINT('',(0.,3.E-15,15.500000000027));
#181 = VERTEX_POINT('',#182);
#182 = CARTESIAN_POINT('',(-4.,3.E-15,15.500000000027));
#183 = LINE('',#184,#185);
#184 = CARTESIAN_POINT('',(0.,0.,15.500000000027));
#185 = VECTOR('',#186,1.);
#186 = DIRECTION('',(-1.,0.,0.));
#187 = ORIENTED_EDGE('',*,*,#188,.T.);
#188 = EDGE_CURVE('',#179,#130,#189,.T.);
#189 = LINE('',#190,#191);
#190 = CARTESIAN_POINT('',(5.700000000001,2.72E-15,15.500000000027));
#191 = VECTOR('',#192,1.);
#192 = DIRECTION('',(1.,0.,0.));
#193 = ORIENTED_EDGE('',*,*,#137,.F.);
#194 = ORIENTED_EDGE('',*,*,#39,.T.);
#195 = ORIENTED_EDGE('',*,*,#162,.T.);
#196 = ORIENTED_EDGE('',*,*,#197,.F.);
#197 = EDGE_CURVE('',#198,#155,#200,.T.);
#198 = VERTEX_POINT('',#199);
#199 = CARTESIAN_POINT('',(0.,-12.6,15.500000000027));
#200 = LINE('',#201,#202);
#201 = CARTESIAN_POINT('',(5.700000000001,-12.6,15.500000000027));
#202 = VECTOR('',#203,1.);
#203 = DIRECTION('',(1.,0.,0.));
#204 = ORIENTED_EDGE('',*,*,#205,.T.);
#205 = EDGE_CURVE('',#198,#206,#208,.T.);
#206 = VERTEX_POINT('',#207);
#207 = CARTESIAN_POINT('',(-4.,-12.6,15.500000000027));
#208 = LINE('',#209,#210);
#209 = CARTESIAN_POINT('',(0.,-12.6,15.500000000027));
#210 = VECTOR('',#211,1.);
#211 = DIRECTION('',(-1.,0.,0.));
#212 = ORIENTED_EDGE('',*,*,#213,.T.);
#213 = EDGE_CURVE('',#206,#214,#216,.T.);
#214 = VERTEX_POINT('',#215);
#215 = CARTESIAN_POINT('',(-5.,-11.6,15.500000000027));
#216 = CIRCLE('',#217,1.);
#217 = AXIS2_PLACEMENT_3D('',#218,#219,#220);
#218 = CARTESIAN_POINT('',(-4.,-11.6,15.500000000027));
#219 = DIRECTION('',(-0.,-2.2E-16,-1.));
#220 = DIRECTION('',(0.,-1.,2.2E-16));
#221 = ORIENTED_EDGE('',*,*,#222,.F.);
#222 = EDGE_CURVE('',#223,#214,#225,.T.);
#223 = VERTEX_POINT('',#224);
#224 = CARTESIAN_POINT('',(-5.,-6.9,15.5));
#225 = LINE('',#226,#227);
#226 = CARTESIAN_POINT('',(-5.,3.44E-15,15.500000000027));
#227 = VECTOR('',#228,1.);
#228 = DIRECTION('',(0.,-1.,2.2E-16));
#229 = ORIENTED_EDGE('',*,*,#230,.T.);
#230 = EDGE_CURVE('',#223,#231,#233,.T.);
#231 = VERTEX_POINT('',#232);
#232 = CARTESIAN_POINT('',(-3.661684396981,-6.9,15.5));
#233 = LINE('',#234,#235);
#234 = CARTESIAN_POINT('',(11.4,-6.9,15.5));
#235 = VECTOR('',#236,1.);
#236 = DIRECTION('',(1.,0.,0.));
#237 = ORIENTED_EDGE('',*,*,#238,.T.);
#238 = EDGE_CURVE('',#231,#239,#241,.T.);
#239 = VERTEX_POINT('',#240);
#240 = CARTESIAN_POINT('',(-1.75,-6.3,15.5));
#241 = CIRCLE('',#242,1.05);
#242 = AXIS2_PLACEMENT_3D('',#243,#244,#245);
#243 = CARTESIAN_POINT('',(-2.8,-6.3,15.5));
#244 = DIRECTION('',(0.,0.,1.));
#245 = DIRECTION('',(1.,0.,0.));
#246 = ORIENTED_EDGE('',*,*,#247,.T.);
#247 = EDGE_CURVE('',#239,#248,#250,.T.);
#248 = VERTEX_POINT('',#249);
#249 = CARTESIAN_POINT('',(-3.661684396981,-5.7,15.5));
#250 = CIRCLE('',#251,1.05);
#251 = AXIS2_PLACEMENT_3D('',#252,#253,#254);
#252 = CARTESIAN_POINT('',(-2.8,-6.3,15.5));
#253 = DIRECTION('',(0.,0.,1.));
#254 = DIRECTION('',(1.,0.,0.));
#255 = ORIENTED_EDGE('',*,*,#256,.T.);
#256 = EDGE_CURVE('',#248,#257,#259,.T.);
#257 = VERTEX_POINT('',#258);
#258 = CARTESIAN_POINT('',(-5.,-5.7,15.5));
#259 = LINE('',#260,#261);
#260 = CARTESIAN_POINT('',(12.06915780151,-5.7,15.5));
#261 = VECTOR('',#262,1.);
#262 = DIRECTION('',(-1.,0.,0.));
#263 = ORIENTED_EDGE('',*,*,#264,.F.);
#264 = EDGE_CURVE('',#265,#257,#267,.T.);
#265 = VERTEX_POINT('',#266);
#266 = CARTESIAN_POINT('',(-5.,-1.,15.500000000027));
#267 = LINE('',#268,#269);
#268 = CARTESIAN_POINT('',(-5.,3.44E-15,15.500000000027));
#269 = VECTOR('',#270,1.);
#270 = DIRECTION('',(0.,-1.,2.2E-16));
#271 = ORIENTED_EDGE('',*,*,#272,.F.);
#272 = EDGE_CURVE('',#181,#265,#273,.T.);
#273 = CIRCLE('',#274,1.);
#274 = AXIS2_PLACEMENT_3D('',#275,#276,#277);
#275 = CARTESIAN_POINT('',(-4.,-1.,15.500000000027));
#276 = DIRECTION('',(-0.,2.2E-16,1.));
#277 = DIRECTION('',(0.,-1.,2.2E-16));
#278 = PLANE('',#279);
#279 = AXIS2_PLACEMENT_3D('',#280,#281,#282);
#280 = CARTESIAN_POINT('',(0.,3.44E-15,15.500000000027));
#281 = DIRECTION('',(-0.,-2.2E-16,-1.));
#282 = DIRECTION('',(-1.,0.,0.));
#283 = ADVANCED_FACE('',(#284,#309,#320,#338),#349,.T.);
#284 = FACE_BOUND('',#285,.T.);
#285 = EDGE_LOOP('',(#286,#296,#302,#303));
#286 = ORIENTED_EDGE('',*,*,#287,.T.);
#287 = EDGE_CURVE('',#288,#290,#292,.T.);
#288 = VERTEX_POINT('',#289);
#289 = CARTESIAN_POINT('',(22.8,-1.,15.5));
#290 = VERTEX_POINT('',#291);
#291 = CARTESIAN_POINT('',(22.8,-11.6,15.5));
#292 = LINE('',#293,#294);
#293 = CARTESIAN_POINT('',(22.8,3.44E-15,15.5));
#294 = VECTOR('',#295,1.);
#295 = DIRECTION('',(0.,-1.,2.2E-16));
#296 = ORIENTED_EDGE('',*,*,#297,.T.);
#297 = EDGE_CURVE('',#290,#64,#298,.T.);
#298 = LINE('',#299,#300);
#299 = CARTESIAN_POINT('',(22.8,-11.6,15.5));
#300 = VECTOR('',#301,1.);
#301 = DIRECTION('',(0.,-2.2E-16,-1.));
#302 = ORIENTED_EDGE('',*,*,#61,.F.);
#303 = ORIENTED_EDGE('',*,*,#304,.F.);
#304 = EDGE_CURVE('',#288,#62,#305,.T.);
#305 = LINE('',#306,#307);
#306 = CARTESIAN_POINT('',(22.8,-1.,15.5));
#307 = VECTOR('',#308,1.);
#308 = DIRECTION('',(0.,-2.2E-16,-1.));
#309 = FACE_BOUND('',#310,.T.);
#310 = EDGE_LOOP('',(#311));
#311 = ORIENTED_EDGE('',*,*,#312,.F.);
#312 = EDGE_CURVE('',#313,#313,#315,.T.);
#313 = VERTEX_POINT('',#314);
#314 = CARTESIAN_POINT('',(22.8,-6.95,5.65));
#315 = CIRCLE('',#316,0.65);
#316 = AXIS2_PLACEMENT_3D('',#317,#318,#319);
#317 = CARTESIAN_POINT('',(22.8,-7.6,5.65));
#318 = DIRECTION('',(1.,0.,0.));
#319 = DIRECTION('',(0.,1.,0.));
#320 = FACE_BOUND('',#321,.T.);
#321 = EDGE_LOOP('',(#322,#331));
#322 = ORIENTED_EDGE('',*,*,#323,.F.);
#323 = EDGE_CURVE('',#313,#324,#326,.T.);
#324 = VERTEX_POINT('',#325);
#325 = CARTESIAN_POINT('',(22.8,-5.65,5.65));
#326 = CIRCLE('',#327,0.65);
#327 = AXIS2_PLACEMENT_3D('',#328,#329,#330);
#328 = CARTESIAN_POINT('',(22.8,-6.3,5.65));
#329 = DIRECTION('',(1.,0.,0.));
#330 = DIRECTION('',(0.,1.,0.));
#331 = ORIENTED_EDGE('',*,*,#332,.F.);
#332 = EDGE_CURVE('',#324,#313,#333,.T.);
#333 = CIRCLE('',#334,0.65);
#334 = AXIS2_PLACEMENT_3D('',#335,#336,#337);
#335 = CARTESIAN_POINT('',(22.8,-6.3,5.65));
#336 = DIRECTION('',(1.,0.,0.));
#337 = DIRECTION('',(0.,1.,0.));
#338 = FACE_BOUND('',#339,.T.);
#339 = EDGE_LOOP('',(#340));
#340 = ORIENTED_EDGE('',*,*,#341,.F.);
#341 = EDGE_CURVE('',#342,#342,#344,.T.);
#342 = VERTEX_POINT('',#343);
#343 = CARTESIAN_POINT('',(22.8,-4.32387,5.65));
#344 = CIRCLE('',#345,0.65);
#345 = AXIS2_PLACEMENT_3D('',#346,#347,#348);
#346 = CARTESIAN_POINT('',(22.8,-4.97387,5.65));
#347 = DIRECTION('',(1.,0.,0.));
#348 = DIRECTION('',(0.,1.,0.));
#349 = PLANE('',#350);
#350 = AXIS2_PLACEMENT_3D('',#351,#352,#353);
#351 = CARTESIAN_POINT('',(22.8,3.44E-15,15.5));
#352 = DIRECTION('',(1.,0.,0.));
#353 = DIRECTION('',(0.,-2.2E-16,-1.));
#354 = ADVANCED_FACE('',(#355),#374,.T.);
#355 = FACE_BOUND('',#356,.T.);
#356 = EDGE_LOOP('',(#357,#366,#367,#368));
#357 = ORIENTED_EDGE('',*,*,#358,.T.);
#358 = EDGE_CURVE('',#359,#288,#361,.T.);
#359 = VERTEX_POINT('',#360);
#360 = CARTESIAN_POINT('',(21.8,3.E-15,15.5));
#361 = CIRCLE('',#362,1.);
#362 = AXIS2_PLACEMENT_3D('',#363,#364,#365);
#363 = CARTESIAN_POINT('',(21.8,-1.,15.5));
#364 = DIRECTION('',(0.,-2.2E-16,-1.));
#365 = DIRECTION('',(0.,1.,-2.2E-16));
#366 = ORIENTED_EDGE('',*,*,#304,.T.);
#367 = ORIENTED_EDGE('',*,*,#113,.F.);
#368 = ORIENTED_EDGE('',*,*,#369,.F.);
#369 = EDGE_CURVE('',#359,#106,#370,.T.);
#370 = LINE('',#371,#372);
#371 = CARTESIAN_POINT('',(21.8,2.89E-15,15.5));
#372 = VECTOR('',#373,1.);
#373 = DIRECTION('',(0.,-2.2E-16,-1.));
#374 = CYLINDRICAL_SURFACE('',#375,1.);
#375 = AXIS2_PLACEMENT_3D('',#376,#377,#378);
#376 = CARTESIAN_POINT('',(21.8,-1.,15.5));
#377 = DIRECTION('',(0.,-2.2E-16,-1.));
#378 = DIRECTION('',(0.,1.,-2.2E-16));
#379 = ADVANCED_FACE('',(#380),#399,.T.);
#380 = FACE_BOUND('',#381,.F.);
#381 = EDGE_LOOP('',(#382,#391,#392,#393));
#382 = ORIENTED_EDGE('',*,*,#383,.T.);
#383 = EDGE_CURVE('',#384,#290,#386,.T.);
#384 = VERTEX_POINT('',#385);
#385 = CARTESIAN_POINT('',(21.8,-12.6,15.5));
#386 = CIRCLE('',#387,1.);
#387 = AXIS2_PLACEMENT_3D('',#388,#389,#390);
#388 = CARTESIAN_POINT('',(21.8,-11.6,15.5));
#389 = DIRECTION('',(0.,2.2E-16,1.));
#390 = DIRECTION('',(0.,1.,-2.2E-16));
#391 = ORIENTED_EDGE('',*,*,#297,.T.);
#392 = ORIENTED_EDGE('',*,*,#71,.F.);
#393 = ORIENTED_EDGE('',*,*,#394,.F.);
#394 = EDGE_CURVE('',#384,#72,#395,.T.);
#395 = LINE('',#396,#397);
#396 = CARTESIAN_POINT('',(21.8,-12.6,15.5));
#397 = VECTOR('',#398,1.);
#398 = DIRECTION('',(0.,-2.2E-16,-1.));
#399 = CYLINDRICAL_SURFACE('',#400,1.);
#400 = AXIS2_PLACEMENT_3D('',#401,#402,#403);
#401 = CARTESIAN_POINT('',(21.8,-11.6,15.5));
#402 = DIRECTION('',(0.,-2.2E-16,-1.));
#403 = DIRECTION('',(0.,-1.,2.2E-16));
#404 = ADVANCED_FACE('',(#405),#498,.T.);
#405 = FACE_BOUND('',#406,.T.);
#406 = EDGE_LOOP('',(#407,#408,#416,#424,#432,#440,#448,#456,#464,#472,
    #480,#488,#494,#495,#496,#497));
#407 = ORIENTED_EDGE('',*,*,#178,.T.);
#408 = ORIENTED_EDGE('',*,*,#409,.T.);
#409 = EDGE_CURVE('',#181,#410,#412,.T.);
#410 = VERTEX_POINT('',#411);
#411 = CARTESIAN_POINT('',(-4.,3.E-15,17.900000000027));
#412 = LINE('',#413,#414);
#413 = CARTESIAN_POINT('',(-4.,2.89E-15,15.500000000027));
#414 = VECTOR('',#415,1.);
#415 = DIRECTION('',(0.,2.2E-16,1.));
#416 = ORIENTED_EDGE('',*,*,#417,.T.);
#417 = EDGE_CURVE('',#410,#418,#420,.T.);
#418 = VERTEX_POINT('',#419);
#419 = CARTESIAN_POINT('',(0.,4.E-15,17.900000000027));
#420 = LINE('',#421,#422);
#421 = CARTESIAN_POINT('',(-5.,0.,17.900000000027));
#422 = VECTOR('',#423,1.);
#423 = DIRECTION('',(1.,0.,0.));
#424 = ORIENTED_EDGE('',*,*,#425,.T.);
#425 = EDGE_CURVE('',#418,#426,#428,.T.);
#426 = VERTEX_POINT('',#427);
#427 = CARTESIAN_POINT('',(1.,3.E-15,17.900000000027));
#428 = LINE('',#429,#430);
#429 = CARTESIAN_POINT('',(3.200000000001,2.72E-15,17.900000000027));
#430 = VECTOR('',#431,1.);
#431 = DIRECTION('',(1.,0.,0.));
#432 = ORIENTED_EDGE('',*,*,#433,.T.);
#433 = EDGE_CURVE('',#426,#434,#436,.T.);
#434 = VERTEX_POINT('',#435);
#435 = CARTESIAN_POINT('',(1.,4.E-15,22.5));
#436 = LINE('',#437,#438);
#437 = CARTESIAN_POINT('',(1.,2.89E-15,17.900000000027));
#438 = VECTOR('',#439,1.);
#439 = DIRECTION('',(0.,2.2E-16,1.));
#440 = ORIENTED_EDGE('',*,*,#441,.T.);
#441 = EDGE_CURVE('',#434,#442,#444,.T.);
#442 = VERTEX_POINT('',#443);
#443 = CARTESIAN_POINT('',(21.8,3.E-15,22.5));
#444 = LINE('',#445,#446);
#445 = CARTESIAN_POINT('',(0.,0.,22.5));
#446 = VECTOR('',#447,1.);
#447 = DIRECTION('',(1.,0.,0.));
#448 = ORIENTED_EDGE('',*,*,#449,.T.);
#449 = EDGE_CURVE('',#442,#450,#452,.T.);
#450 = VERTEX_POINT('',#451);
#451 = CARTESIAN_POINT('',(21.8,2.E-15,17.900000000024));
#452 = LINE('',#453,#454);
#453 = CARTESIAN_POINT('',(21.8,2.89E-15,22.5));
#454 = VECTOR('',#455,1.);
#455 = DIRECTION('',(0.,-2.2E-16,-1.));
#456 = ORIENTED_EDGE('',*,*,#457,.F.);
#457 = EDGE_CURVE('',#458,#450,#460,.T.);
#458 = VERTEX_POINT('',#459);
#459 = CARTESIAN_POINT('',(22.8,4.E-15,17.900000000024));
#460 = LINE('',#461,#462);
#461 = CARTESIAN_POINT('',(17.100000000001,2.72E-15,17.900000000024));
#462 = VECTOR('',#463,1.);
#463 = DIRECTION('',(-1.,-0.,-0.));
#464 = ORIENTED_EDGE('',*,*,#465,.T.);
#465 = EDGE_CURVE('',#458,#466,#468,.T.);
#466 = VERTEX_POINT('',#467);
#467 = CARTESIAN_POINT('',(26.8,3.E-15,17.900000000024));
#468 = LINE('',#469,#470);
#469 = CARTESIAN_POINT('',(22.8,0.,17.900000000024));
#470 = VECTOR('',#471,1.);
#471 = DIRECTION('',(1.,0.,0.));
#472 = ORIENTED_EDGE('',*,*,#473,.T.);
#473 = EDGE_CURVE('',#466,#474,#476,.T.);
#474 = VERTEX_POINT('',#475);
#475 = CARTESIAN_POINT('',(26.8,2.E-15,15.5));
#476 = LINE('',#477,#478);
#477 = CARTESIAN_POINT('',(26.8,2.89E-15,17.900000000024));
#478 = VECTOR('',#479,1.);
#479 = DIRECTION('',(0.,-2.2E-16,-1.));
#480 = ORIENTED_EDGE('',*,*,#481,.T.);
#481 = EDGE_CURVE('',#474,#482,#484,.T.);
#482 = VERTEX_POINT('',#483);
#483 = CARTESIAN_POINT('',(22.8,3.E-15,15.5));
#484 = LINE('',#485,#486);
#485 = CARTESIAN_POINT('',(27.8,0.,15.5));
#486 = VECTOR('',#487,1.);
#487 = DIRECTION('',(-1.,0.,0.));
#488 = ORIENTED_EDGE('',*,*,#489,.T.);
#489 = EDGE_CURVE('',#482,#359,#490,.T.);
#490 = LINE('',#491,#492);
#491 = CARTESIAN_POINT('',(19.600000000001,2.72E-15,15.5));
#492 = VECTOR('',#493,1.);
#493 = DIRECTION('',(-1.,0.,0.));
#494 = ORIENTED_EDGE('',*,*,#369,.T.);
#495 = ORIENTED_EDGE('',*,*,#105,.T.);
#496 = ORIENTED_EDGE('',*,*,#129,.T.);
#497 = ORIENTED_EDGE('',*,*,#188,.F.);
#498 = PLANE('',#499);
#499 = AXIS2_PLACEMENT_3D('',#500,#501,#502);
#500 = CARTESIAN_POINT('',(11.400000000001,2.72E-15,12.235533453891));
#501 = DIRECTION('',(0.,1.,0.));
#502 = DIRECTION('',(0.,0.,1.));
#503 = ADVANCED_FACE('',(#504),#597,.F.);
#504 = FACE_BOUND('',#505,.F.);
#505 = EDGE_LOOP('',(#506,#507,#515,#523,#531,#539,#547,#555,#563,#571,
    #579,#587,#593,#594,#595,#596));
#506 = ORIENTED_EDGE('',*,*,#205,.T.);
#507 = ORIENTED_EDGE('',*,*,#508,.T.);
#508 = EDGE_CURVE('',#206,#509,#511,.T.);
#509 = VERTEX_POINT('',#510);
#510 = CARTESIAN_POINT('',(-4.,-12.6,17.900000000027));
#511 = LINE('',#512,#513);
#512 = CARTESIAN_POINT('',(-4.,-12.6,15.500000000027));
#513 = VECTOR('',#514,1.);
#514 = DIRECTION('',(0.,2.2E-16,1.));
#515 = ORIENTED_EDGE('',*,*,#516,.T.);
#516 = EDGE_CURVE('',#509,#517,#519,.T.);
#517 = VERTEX_POINT('',#518);
#518 = CARTESIAN_POINT('',(0.,-12.6,17.900000000027));
#519 = LINE('',#520,#521);
#520 = CARTESIAN_POINT('',(-5.,-12.6,17.900000000027));
#521 = VECTOR('',#522,1.);
#522 = DIRECTION('',(1.,0.,0.));
#523 = ORIENTED_EDGE('',*,*,#524,.T.);
#524 = EDGE_CURVE('',#517,#525,#527,.T.);
#525 = VERTEX_POINT('',#526);
#526 = CARTESIAN_POINT('',(1.,-12.6,17.900000000027));
#527 = LINE('',#528,#529);
#528 = CARTESIAN_POINT('',(3.200000000001,-12.6,17.900000000027));
#529 = VECTOR('',#530,1.);
#530 = DIRECTION('',(1.,0.,0.));
#531 = ORIENTED_EDGE('',*,*,#532,.T.);
#532 = EDGE_CURVE('',#525,#533,#535,.T.);
#533 = VERTEX_POINT('',#534);
#534 = CARTESIAN_POINT('',(1.,-12.6,22.5));
#535 = LINE('',#536,#537);
#536 = CARTESIAN_POINT('',(1.,-12.6,17.900000000027));
#537 = VECTOR('',#538,1.);
#538 = DIRECTION('',(0.,2.2E-16,1.));
#539 = ORIENTED_EDGE('',*,*,#540,.T.);
#540 = EDGE_CURVE('',#533,#541,#543,.T.);
#541 = VERTEX_POINT('',#542);
#542 = CARTESIAN_POINT('',(21.8,-12.6,22.5));
#543 = LINE('',#544,#545);
#544 = CARTESIAN_POINT('',(0.,-12.6,22.5));
#545 = VECTOR('',#546,1.);
#546 = DIRECTION('',(1.,0.,0.));
#547 = ORIENTED_EDGE('',*,*,#548,.T.);
#548 = EDGE_CURVE('',#541,#549,#551,.T.);
#549 = VERTEX_POINT('',#550);
#550 = CARTESIAN_POINT('',(21.8,-12.6,17.900000000024));
#551 = LINE('',#552,#553);
#552 = CARTESIAN_POINT('',(21.8,-12.6,22.5));
#553 = VECTOR('',#554,1.);
#554 = DIRECTION('',(0.,-2.2E-16,-1.));
#555 = ORIENTED_EDGE('',*,*,#556,.F.);
#556 = EDGE_CURVE('',#557,#549,#559,.T.);
#557 = VERTEX_POINT('',#558);
#558 = CARTESIAN_POINT('',(22.8,-12.6,17.900000000024));
#559 = LINE('',#560,#561);
#560 = CARTESIAN_POINT('',(17.100000000001,-12.6,17.900000000024));
#561 = VECTOR('',#562,1.);
#562 = DIRECTION('',(-1.,-0.,-0.));
#563 = ORIENTED_EDGE('',*,*,#564,.T.);
#564 = EDGE_CURVE('',#557,#565,#567,.T.);
#565 = VERTEX_POINT('',#566);
#566 = CARTESIAN_POINT('',(26.8,-12.6,17.900000000024));
#567 = LINE('',#568,#569);
#568 = CARTESIAN_POINT('',(22.8,-12.6,17.900000000024));
#569 = VECTOR('',#570,1.);
#570 = DIRECTION('',(1.,0.,0.));
#571 = ORIENTED_EDGE('',*,*,#572,.T.);
#572 = EDGE_CURVE('',#565,#573,#575,.T.);
#573 = VERTEX_POINT('',#574);
#574 = CARTESIAN_POINT('',(26.8,-12.6,15.5));
#575 = LINE('',#576,#577);
#576 = CARTESIAN_POINT('',(26.8,-12.6,17.900000000024));
#577 = VECTOR('',#578,1.);
#578 = DIRECTION('',(0.,-2.2E-16,-1.));
#579 = ORIENTED_EDGE('',*,*,#580,.T.);
#580 = EDGE_CURVE('',#573,#581,#583,.T.);
#581 = VERTEX_POINT('',#582);
#582 = CARTESIAN_POINT('',(22.8,-12.6,15.5));
#583 = LINE('',#584,#585);
#584 = CARTESIAN_POINT('',(27.8,-12.6,15.5));
#585 = VECTOR('',#586,1.);
#586 = DIRECTION('',(-1.,0.,0.));
#587 = ORIENTED_EDGE('',*,*,#588,.T.);
#588 = EDGE_CURVE('',#581,#384,#589,.T.);
#589 = LINE('',#590,#591);
#590 = CARTESIAN_POINT('',(19.600000000001,-12.6,15.5));
#591 = VECTOR('',#592,1.);
#592 = DIRECTION('',(-1.,0.,0.));
#593 = ORIENTED_EDGE('',*,*,#394,.T.);
#594 = ORIENTED_EDGE('',*,*,#80,.T.);
#595 = ORIENTED_EDGE('',*,*,#154,.T.);
#596 = ORIENTED_EDGE('',*,*,#197,.F.);
#597 = PLANE('',#598);
#598 = AXIS2_PLACEMENT_3D('',#599,#600,#601);
#599 = CARTESIAN_POINT('',(11.400000000001,-12.6,12.235533453891));
#600 = DIRECTION('',(0.,1.,0.));
#601 = DIRECTION('',(0.,0.,1.));
#602 = ADVANCED_FACE('',(#603),#622,.T.);
#603 = FACE_BOUND('',#604,.T.);
#604 = EDGE_LOOP('',(#605,#606,#614,#621));
#605 = ORIENTED_EDGE('',*,*,#272,.T.);
#606 = ORIENTED_EDGE('',*,*,#607,.T.);
#607 = EDGE_CURVE('',#265,#608,#610,.T.);
#608 = VERTEX_POINT('',#609);
#609 = CARTESIAN_POINT('',(-5.,-1.,17.900000000027));
#610 = LINE('',#611,#612);
#611 = CARTESIAN_POINT('',(-5.,-1.,15.500000000027));
#612 = VECTOR('',#613,1.);
#613 = DIRECTION('',(0.,2.2E-16,1.));
#614 = ORIENTED_EDGE('',*,*,#615,.F.);
#615 = EDGE_CURVE('',#410,#608,#616,.T.);
#616 = CIRCLE('',#617,1.);
#617 = AXIS2_PLACEMENT_3D('',#618,#619,#620);
#618 = CARTESIAN_POINT('',(-4.,-1.,17.900000000027));
#619 = DIRECTION('',(-0.,2.2E-16,1.));
#620 = DIRECTION('',(0.,-1.,2.2E-16));
#621 = ORIENTED_EDGE('',*,*,#409,.F.);
#622 = CYLINDRICAL_SURFACE('',#623,1.);
#623 = AXIS2_PLACEMENT_3D('',#624,#625,#626);
#624 = CARTESIAN_POINT('',(-4.,-1.,15.500000000027));
#625 = DIRECTION('',(0.,2.2E-16,1.));
#626 = DIRECTION('',(0.,1.,-2.2E-16));
#627 = ADVANCED_FACE('',(#628),#646,.T.);
#628 = FACE_BOUND('',#629,.T.);
#629 = EDGE_LOOP('',(#630,#638,#639,#640));
#630 = ORIENTED_EDGE('',*,*,#631,.F.);
#631 = EDGE_CURVE('',#608,#632,#634,.T.);
#632 = VERTEX_POINT('',#633);
#633 = CARTESIAN_POINT('',(-5.,-5.7,17.900000000024));
#634 = LINE('',#635,#636);
#635 = CARTESIAN_POINT('',(-5.,3.97E-15,17.900000000027));
#636 = VECTOR('',#637,1.);
#637 = DIRECTION('',(0.,-1.,2.2E-16));
#638 = ORIENTED_EDGE('',*,*,#607,.F.);
#639 = ORIENTED_EDGE('',*,*,#264,.T.);
#640 = ORIENTED_EDGE('',*,*,#641,.F.);
#641 = EDGE_CURVE('',#632,#257,#642,.T.);
#642 = LINE('',#643,#644);
#643 = CARTESIAN_POINT('',(-5.,-5.7,17.900000000024));
#644 = VECTOR('',#645,1.);
#645 = DIRECTION('',(-0.,-0.,-1.));
#646 = PLANE('',#647);
#647 = AXIS2_PLACEMENT_3D('',#648,#649,#650);
#648 = CARTESIAN_POINT('',(-5.,3.44E-15,15.500000000027));
#649 = DIRECTION('',(-1.,0.,0.));
#650 = DIRECTION('',(0.,2.2E-16,1.));
#651 = ADVANCED_FACE('',(#652),#670,.F.);
#652 = FACE_BOUND('',#653,.F.);
#653 = EDGE_LOOP('',(#654,#662,#668,#669));
#654 = ORIENTED_EDGE('',*,*,#655,.F.);
#655 = EDGE_CURVE('',#656,#632,#658,.T.);
#656 = VERTEX_POINT('',#657);
#657 = CARTESIAN_POINT('',(-3.661684396981,-5.7,17.900000000024));
#658 = LINE('',#659,#660);
#659 = CARTESIAN_POINT('',(-3.661684396981,-5.7,17.900000000024));
#660 = VECTOR('',#661,1.);
#661 = DIRECTION('',(-1.,0.,0.));
#662 = ORIENTED_EDGE('',*,*,#663,.T.);
#663 = EDGE_CURVE('',#656,#248,#664,.T.);
#664 = LINE('',#665,#666);
#665 = CARTESIAN_POINT('',(-3.661684396981,-5.7,17.900000000024));
#666 = VECTOR('',#667,1.);
#667 = DIRECTION('',(-0.,-0.,-1.));
#668 = ORIENTED_EDGE('',*,*,#256,.T.);
#669 = ORIENTED_EDGE('',*,*,#641,.F.);
#670 = PLANE('',#671);
#671 = AXIS2_PLACEMENT_3D('',#672,#673,#674);
#672 = CARTESIAN_POINT('',(-3.661684396981,-5.7,17.900000000024));
#673 = DIRECTION('',(0.,1.,0.));
#674 = DIRECTION('',(-1.,0.,0.));
#675 = ADVANCED_FACE('',(#676),#705,.F.);
#676 = FACE_BOUND('',#677,.F.);
#677 = EDGE_LOOP('',(#678,#679,#680,#689,#698,#704));
#678 = ORIENTED_EDGE('',*,*,#247,.T.);
#679 = ORIENTED_EDGE('',*,*,#663,.F.);
#680 = ORIENTED_EDGE('',*,*,#681,.F.);
#681 = EDGE_CURVE('',#682,#656,#684,.T.);
#682 = VERTEX_POINT('',#683);
#683 = CARTESIAN_POINT('',(-1.75,-6.3,17.900000000024));
#684 = CIRCLE('',#685,1.05);
#685 = AXIS2_PLACEMENT_3D('',#686,#687,#688);
#686 = CARTESIAN_POINT('',(-2.8,-6.3,17.900000000024));
#687 = DIRECTION('',(0.,0.,1.));
#688 = DIRECTION('',(1.,0.,0.));
#689 = ORIENTED_EDGE('',*,*,#690,.F.);
#690 = EDGE_CURVE('',#691,#682,#693,.T.);
#691 = VERTEX_POINT('',#692);
#692 = CARTESIAN_POINT('',(-3.661684396981,-6.9,17.900000000024));
#693 = CIRCLE('',#694,1.05);
#694 = AXIS2_PLACEMENT_3D('',#695,#696,#697);
#695 = CARTESIAN_POINT('',(-2.8,-6.3,17.900000000024));
#696 = DIRECTION('',(0.,0.,1.));
#697 = DIRECTION('',(1.,0.,0.));
#698 = ORIENTED_EDGE('',*,*,#699,.T.);
#699 = EDGE_CURVE('',#691,#231,#700,.T.);
#700 = LINE('',#701,#702);
#701 = CARTESIAN_POINT('',(-3.661684396981,-6.9,17.900000000024));
#702 = VECTOR('',#703,1.);
#703 = DIRECTION('',(-0.,-0.,-1.));
#704 = ORIENTED_EDGE('',*,*,#238,.T.);
#705 = CYLINDRICAL_SURFACE('',#706,1.05);
#706 = AXIS2_PLACEMENT_3D('',#707,#708,#709);
#707 = CARTESIAN_POINT('',(-2.8,-6.3,17.900000000024));
#708 = DIRECTION('',(0.,0.,1.));
#709 = DIRECTION('',(1.,0.,0.));
#710 = ADVANCED_FACE('',(#711),#729,.F.);
#711 = FACE_BOUND('',#712,.F.);
#712 = EDGE_LOOP('',(#713,#721,#727,#728));
#713 = ORIENTED_EDGE('',*,*,#714,.F.);
#714 = EDGE_CURVE('',#715,#691,#717,.T.);
#715 = VERTEX_POINT('',#716);
#716 = CARTESIAN_POINT('',(-5.,-6.9,17.900000000024));
#717 = LINE('',#718,#719);
#718 = CARTESIAN_POINT('',(-5.,-6.9,17.900000000024));
#719 = VECTOR('',#720,1.);
#720 = DIRECTION('',(1.,0.,0.));
#721 = ORIENTED_EDGE('',*,*,#722,.T.);
#722 = EDGE_CURVE('',#715,#223,#723,.T.);
#723 = LINE('',#724,#725);
#724 = CARTESIAN_POINT('',(-5.,-6.9,17.900000000024));
#725 = VECTOR('',#726,1.);
#726 = DIRECTION('',(-0.,-0.,-1.));
#727 = ORIENTED_EDGE('',*,*,#230,.T.);
#728 = ORIENTED_EDGE('',*,*,#699,.F.);
#729 = PLANE('',#730);
#730 = AXIS2_PLACEMENT_3D('',#731,#732,#733);
#731 = CARTESIAN_POINT('',(-5.,-6.9,17.900000000024));
#732 = DIRECTION('',(0.,-1.,0.));
#733 = DIRECTION('',(1.,0.,0.));
#734 = ADVANCED_FACE('',(#735),#753,.T.);
#735 = FACE_BOUND('',#736,.T.);
#736 = EDGE_LOOP('',(#737,#745,#746,#747));
#737 = ORIENTED_EDGE('',*,*,#738,.F.);
#738 = EDGE_CURVE('',#715,#739,#741,.T.);
#739 = VERTEX_POINT('',#740);
#740 = CARTESIAN_POINT('',(-5.,-11.6,17.900000000027));
#741 = LINE('',#742,#743);
#742 = CARTESIAN_POINT('',(-5.,3.97E-15,17.900000000027));
#743 = VECTOR('',#744,1.);
#744 = DIRECTION('',(0.,-1.,2.2E-16));
#745 = ORIENTED_EDGE('',*,*,#722,.T.);
#746 = ORIENTED_EDGE('',*,*,#222,.T.);
#747 = ORIENTED_EDGE('',*,*,#748,.T.);
#748 = EDGE_CURVE('',#214,#739,#749,.T.);
#749 = LINE('',#750,#751);
#750 = CARTESIAN_POINT('',(-5.,-11.6,15.500000000027));
#751 = VECTOR('',#752,1.);
#752 = DIRECTION('',(0.,2.2E-16,1.));
#753 = PLANE('',#754);
#754 = AXIS2_PLACEMENT_3D('',#755,#756,#757);
#755 = CARTESIAN_POINT('',(-5.,3.44E-15,15.500000000027));
#756 = DIRECTION('',(-1.,0.,0.));
#757 = DIRECTION('',(0.,2.2E-16,1.));
#758 = ADVANCED_FACE('',(#759),#771,.T.);
#759 = FACE_BOUND('',#760,.F.);
#760 = EDGE_LOOP('',(#761,#762,#763,#770));
#761 = ORIENTED_EDGE('',*,*,#213,.T.);
#762 = ORIENTED_EDGE('',*,*,#748,.T.);
#763 = ORIENTED_EDGE('',*,*,#764,.F.);
#764 = EDGE_CURVE('',#509,#739,#765,.T.);
#765 = CIRCLE('',#766,1.);
#766 = AXIS2_PLACEMENT_3D('',#767,#768,#769);
#767 = CARTESIAN_POINT('',(-4.,-11.6,17.900000000027));
#768 = DIRECTION('',(-0.,-2.2E-16,-1.));
#769 = DIRECTION('',(0.,-1.,2.2E-16));
#770 = ORIENTED_EDGE('',*,*,#508,.F.);
#771 = CYLINDRICAL_SURFACE('',#772,1.);
#772 = AXIS2_PLACEMENT_3D('',#773,#774,#775);
#773 = CARTESIAN_POINT('',(-4.,-11.6,15.500000000027));
#774 = DIRECTION('',(0.,2.2E-16,1.));
#775 = DIRECTION('',(0.,-1.,2.2E-16));
#776 = ADVANCED_FACE('',(#777),#843,.T.);
#777 = FACE_BOUND('',#778,.T.);
#778 = EDGE_LOOP('',(#779,#780,#789,#797,#805,#814,#822,#830,#837,#838,
    #839,#840,#841,#842));
#779 = ORIENTED_EDGE('',*,*,#481,.F.);
#780 = ORIENTED_EDGE('',*,*,#781,.T.);
#781 = EDGE_CURVE('',#474,#782,#784,.T.);
#782 = VERTEX_POINT('',#783);
#783 = CARTESIAN_POINT('',(27.8,-1.,15.5));
#784 = CIRCLE('',#785,1.);
#785 = AXIS2_PLACEMENT_3D('',#786,#787,#788);
#786 = CARTESIAN_POINT('',(26.8,-1.,15.5));
#787 = DIRECTION('',(0.,-2.2E-16,-1.));
#788 = DIRECTION('',(0.,1.,-2.2E-16));
#789 = ORIENTED_EDGE('',*,*,#790,.T.);
#790 = EDGE_CURVE('',#782,#791,#793,.T.);
#791 = VERTEX_POINT('',#792);
#792 = CARTESIAN_POINT('',(27.8,-5.7,15.5));
#793 = LINE('',#794,#795);
#794 = CARTESIAN_POINT('',(27.8,3.44E-15,15.5));
#795 = VECTOR('',#796,1.);
#796 = DIRECTION('',(0.,-1.,2.2E-16));
#797 = ORIENTED_EDGE('',*,*,#798,.T.);
#798 = EDGE_CURVE('',#791,#799,#801,.T.);
#799 = VERTEX_POINT('',#800);
#800 = CARTESIAN_POINT('',(26.461684396981,-5.7,15.5));
#801 = LINE('',#802,#803);
#802 = CARTESIAN_POINT('',(27.8,-5.7,15.5));
#803 = VECTOR('',#804,1.);
#804 = DIRECTION('',(-1.,0.,0.));
#805 = ORIENTED_EDGE('',*,*,#806,.T.);
#806 = EDGE_CURVE('',#799,#807,#809,.T.);
#807 = VERTEX_POINT('',#808);
#808 = CARTESIAN_POINT('',(26.461684396981,-6.9,15.5));
#809 = CIRCLE('',#810,1.05);
#810 = AXIS2_PLACEMENT_3D('',#811,#812,#813);
#811 = CARTESIAN_POINT('',(25.6,-6.3,15.5));
#812 = DIRECTION('',(0.,0.,1.));
#813 = DIRECTION('',(1.,0.,0.));
#814 = ORIENTED_EDGE('',*,*,#815,.T.);
#815 = EDGE_CURVE('',#807,#816,#818,.T.);
#816 = VERTEX_POINT('',#817);
#817 = CARTESIAN_POINT('',(27.8,-6.9,15.5));
#818 = LINE('',#819,#820);
#819 = CARTESIAN_POINT('',(27.13084219849,-6.9,15.5));
#820 = VECTOR('',#821,1.);
#821 = DIRECTION('',(1.,0.,0.));
#822 = ORIENTED_EDGE('',*,*,#823,.T.);
#823 = EDGE_CURVE('',#816,#824,#826,.T.);
#824 = VERTEX_POINT('',#825);
#825 = CARTESIAN_POINT('',(27.8,-11.6,15.5));
#826 = LINE('',#827,#828);
#827 = CARTESIAN_POINT('',(27.8,3.44E-15,15.5));
#828 = VECTOR('',#829,1.);
#829 = DIRECTION('',(0.,-1.,2.2E-16));
#830 = ORIENTED_EDGE('',*,*,#831,.F.);
#831 = EDGE_CURVE('',#573,#824,#832,.T.);
#832 = CIRCLE('',#833,1.);
#833 = AXIS2_PLACEMENT_3D('',#834,#835,#836);
#834 = CARTESIAN_POINT('',(26.8,-11.6,15.5));
#835 = DIRECTION('',(0.,2.2E-16,1.));
#836 = DIRECTION('',(0.,1.,-2.2E-16));
#837 = ORIENTED_EDGE('',*,*,#580,.T.);
#838 = ORIENTED_EDGE('',*,*,#588,.T.);
#839 = ORIENTED_EDGE('',*,*,#383,.T.);
#840 = ORIENTED_EDGE('',*,*,#287,.F.);
#841 = ORIENTED_EDGE('',*,*,#358,.F.);
#842 = ORIENTED_EDGE('',*,*,#489,.F.);
#843 = PLANE('',#844);
#844 = AXIS2_PLACEMENT_3D('',#845,#846,#847);
#845 = CARTESIAN_POINT('',(27.8,3.44E-15,15.5));
#846 = DIRECTION('',(-0.,-2.2E-16,-1.));
#847 = DIRECTION('',(-1.,0.,0.));
#848 = ADVANCED_FACE('',(#849),#868,.T.);
#849 = FACE_BOUND('',#850,.F.);
#850 = EDGE_LOOP('',(#851,#859,#866,#867));
#851 = ORIENTED_EDGE('',*,*,#852,.T.);
#852 = EDGE_CURVE('',#313,#853,#855,.T.);
#853 = VERTEX_POINT('',#854);
#854 = CARTESIAN_POINT('',(27.8,-6.95,5.65));
#855 = LINE('',#856,#857);
#856 = CARTESIAN_POINT('',(22.8,-6.95,5.65));
#857 = VECTOR('',#858,1.);
#858 = DIRECTION('',(1.,0.,0.));
#859 = ORIENTED_EDGE('',*,*,#860,.T.);
#860 = EDGE_CURVE('',#853,#853,#861,.T.);
#861 = CIRCLE('',#862,0.65);
#862 = AXIS2_PLACEMENT_3D('',#863,#864,#865);
#863 = CARTESIAN_POINT('',(27.8,-7.6,5.65));
#864 = DIRECTION('',(1.,0.,0.));
#865 = DIRECTION('',(0.,1.,0.));
#866 = ORIENTED_EDGE('',*,*,#852,.F.);
#867 = ORIENTED_EDGE('',*,*,#312,.F.);
#868 = CYLINDRICAL_SURFACE('',#869,0.65);
#869 = AXIS2_PLACEMENT_3D('',#870,#871,#872);
#870 = CARTESIAN_POINT('',(22.8,-7.6,5.65));
#871 = DIRECTION('',(-1.,-0.,-0.));
#872 = DIRECTION('',(0.,1.,0.));
#873 = ADVANCED_FACE('',(#874),#900,.T.);
#874 = FACE_BOUND('',#875,.F.);
#875 = EDGE_LOOP('',(#876,#877,#878,#885,#892,#899));
#876 = ORIENTED_EDGE('',*,*,#323,.F.);
#877 = ORIENTED_EDGE('',*,*,#332,.F.);
#878 = ORIENTED_EDGE('',*,*,#879,.F.);
#879 = EDGE_CURVE('',#880,#324,#882,.T.);
#880 = VERTEX_POINT('',#881);
#881 = CARTESIAN_POINT('',(27.8,-5.65,5.65));
#882 = B_SPLINE_CURVE_WITH_KNOTS('',1,(#883,#884),.UNSPECIFIED.,.F.,.F.,
  (2,2),(-5.,0.),.PIECEWISE_BEZIER_KNOTS.);
#883 = CARTESIAN_POINT('',(27.8,-5.65,5.65));
#884 = CARTESIAN_POINT('',(22.8,-5.65,5.65));
#885 = ORIENTED_EDGE('',*,*,#886,.T.);
#886 = EDGE_CURVE('',#880,#853,#887,.T.);
#887 = CIRCLE('',#888,0.65);
#888 = AXIS2_PLACEMENT_3D('',#889,#890,#891);
#889 = CARTESIAN_POINT('',(27.8,-6.3,5.65));
#890 = DIRECTION('',(1.,0.,0.));
#891 = DIRECTION('',(0.,1.,0.));
#892 = ORIENTED_EDGE('',*,*,#893,.T.);
#893 = EDGE_CURVE('',#853,#880,#894,.T.);
#894 = CIRCLE('',#895,0.65);
#895 = AXIS2_PLACEMENT_3D('',#896,#897,#898);
#896 = CARTESIAN_POINT('',(27.8,-6.3,5.65));
#897 = DIRECTION('',(1.,0.,0.));
#898 = DIRECTION('',(0.,1.,0.));
#899 = ORIENTED_EDGE('',*,*,#879,.T.);
#900 = CYLINDRICAL_SURFACE('',#901,0.65);
#901 = AXIS2_PLACEMENT_3D('',#902,#903,#904);
#902 = CARTESIAN_POINT('',(22.8,-6.3,5.65));
#903 = DIRECTION('',(-1.,-0.,-0.));
#904 = DIRECTION('',(0.,1.,0.));
#905 = ADVANCED_FACE('',(#906),#925,.T.);
#906 = FACE_BOUND('',#907,.F.);
#907 = EDGE_LOOP('',(#908,#916,#923,#924));
#908 = ORIENTED_EDGE('',*,*,#909,.T.);
#909 = EDGE_CURVE('',#342,#910,#912,.T.);
#910 = VERTEX_POINT('',#911);
#911 = CARTESIAN_POINT('',(27.8,-4.32387,5.65));
#912 = LINE('',#913,#914);
#913 = CARTESIAN_POINT('',(22.8,-4.32387,5.65));
#914 = VECTOR('',#915,1.);
#915 = DIRECTION('',(1.,0.,0.));
#916 = ORIENTED_EDGE('',*,*,#917,.T.);
#917 = EDGE_CURVE('',#910,#910,#918,.T.);
#918 = CIRCLE('',#919,0.65);
#919 = AXIS2_PLACEMENT_3D('',#920,#921,#922);
#920 = CARTESIAN_POINT('',(27.8,-4.97387,5.65));
#921 = DIRECTION('',(1.,0.,0.));
#922 = DIRECTION('',(0.,1.,0.));
#923 = ORIENTED_EDGE('',*,*,#909,.F.);
#924 = ORIENTED_EDGE('',*,*,#341,.F.);
#925 = CYLINDRICAL_SURFACE('',#926,0.65);
#926 = AXIS2_PLACEMENT_3D('',#927,#928,#929);
#927 = CARTESIAN_POINT('',(22.8,-4.97387,5.65));
#928 = DIRECTION('',(-1.,-0.,-0.));
#929 = DIRECTION('',(0.,1.,0.));
#930 = ADVANCED_FACE('',(#931),#969,.T.);
#931 = FACE_BOUND('',#932,.T.);
#932 = EDGE_LOOP('',(#933,#934,#935,#936,#937,#938,#939,#940,#941,#942,
    #943,#944,#953,#961,#968));
#933 = ORIENTED_EDGE('',*,*,#417,.F.);
#934 = ORIENTED_EDGE('',*,*,#615,.T.);
#935 = ORIENTED_EDGE('',*,*,#631,.T.);
#936 = ORIENTED_EDGE('',*,*,#655,.F.);
#937 = ORIENTED_EDGE('',*,*,#681,.F.);
#938 = ORIENTED_EDGE('',*,*,#690,.F.);
#939 = ORIENTED_EDGE('',*,*,#714,.F.);
#940 = ORIENTED_EDGE('',*,*,#738,.T.);
#941 = ORIENTED_EDGE('',*,*,#764,.F.);
#942 = ORIENTED_EDGE('',*,*,#516,.T.);
#943 = ORIENTED_EDGE('',*,*,#524,.T.);
#944 = ORIENTED_EDGE('',*,*,#945,.T.);
#945 = EDGE_CURVE('',#525,#946,#948,.T.);
#946 = VERTEX_POINT('',#947);
#947 = CARTESIAN_POINT('',(0.,-11.6,17.900000000027));
#948 = CIRCLE('',#949,1.);
#949 = AXIS2_PLACEMENT_3D('',#950,#951,#952);
#950 = CARTESIAN_POINT('',(1.,-11.6,17.900000000027));
#951 = DIRECTION('',(-0.,-2.2E-16,-1.));
#952 = DIRECTION('',(0.,-1.,2.2E-16));
#953 = ORIENTED_EDGE('',*,*,#954,.F.);
#954 = EDGE_CURVE('',#955,#946,#957,.T.);
#955 = VERTEX_POINT('',#956);
#956 = CARTESIAN_POINT('',(0.,-1.,17.900000000027));
#957 = LINE('',#958,#959);
#958 = CARTESIAN_POINT('',(0.,3.97E-15,17.900000000027));
#959 = VECTOR('',#960,1.);
#960 = DIRECTION('',(0.,-1.,2.2E-16));
#961 = ORIENTED_EDGE('',*,*,#962,.F.);
#962 = EDGE_CURVE('',#426,#955,#963,.T.);
#963 = CIRCLE('',#964,1.);
#964 = AXIS2_PLACEMENT_3D('',#965,#966,#967);
#965 = CARTESIAN_POINT('',(1.,-1.,17.900000000027));
#966 = DIRECTION('',(-0.,2.2E-16,1.));
#967 = DIRECTION('',(0.,-1.,2.2E-16));
#968 = ORIENTED_EDGE('',*,*,#425,.F.);
#969 = PLANE('',#970);
#970 = AXIS2_PLACEMENT_3D('',#971,#972,#973);
#971 = CARTESIAN_POINT('',(-5.,3.97E-15,17.900000000027));
#972 = DIRECTION('',(0.,2.2E-16,1.));
#973 = DIRECTION('',(1.,0.,0.));
#974 = ADVANCED_FACE('',(#975),#994,.T.);
#975 = FACE_BOUND('',#976,.T.);
#976 = EDGE_LOOP('',(#977,#978,#986,#993));
#977 = ORIENTED_EDGE('',*,*,#962,.T.);
#978 = ORIENTED_EDGE('',*,*,#979,.T.);
#979 = EDGE_CURVE('',#955,#980,#982,.T.);
#980 = VERTEX_POINT('',#981);
#981 = CARTESIAN_POINT('',(0.,-1.,22.5));
#982 = LINE('',#983,#984);
#983 = CARTESIAN_POINT('',(-2.2E-16,-1.,17.900000000027));
#984 = VECTOR('',#985,1.);
#985 = DIRECTION('',(0.,2.2E-16,1.));
#986 = ORIENTED_EDGE('',*,*,#987,.F.);
#987 = EDGE_CURVE('',#434,#980,#988,.T.);
#988 = CIRCLE('',#989,1.);
#989 = AXIS2_PLACEMENT_3D('',#990,#991,#992);
#990 = CARTESIAN_POINT('',(1.,-1.,22.5));
#991 = DIRECTION('',(-0.,2.2E-16,1.));
#992 = DIRECTION('',(0.,-1.,2.2E-16));
#993 = ORIENTED_EDGE('',*,*,#433,.F.);
#994 = CYLINDRICAL_SURFACE('',#995,1.);
#995 = AXIS2_PLACEMENT_3D('',#996,#997,#998);
#996 = CARTESIAN_POINT('',(1.,-1.,17.900000000027));
#997 = DIRECTION('',(0.,2.2E-16,1.));
#998 = DIRECTION('',(0.,1.,-2.2E-16));
#999 = ADVANCED_FACE('',(#1000,#1052),#1095,.T.);
#1000 = FACE_BOUND('',#1001,.T.);
#1001 = EDGE_LOOP('',(#1002,#1003,#1004,#1012,#1019,#1020,#1029,#1037,
    #1045));
#1002 = ORIENTED_EDGE('',*,*,#441,.F.);
#1003 = ORIENTED_EDGE('',*,*,#987,.T.);
#1004 = ORIENTED_EDGE('',*,*,#1005,.T.);
#1005 = EDGE_CURVE('',#980,#1006,#1008,.T.);
#1006 = VERTEX_POINT('',#1007);
#1007 = CARTESIAN_POINT('',(0.,-11.6,22.5));
#1008 = LINE('',#1009,#1010);
#1009 = CARTESIAN_POINT('',(0.,5.E-15,22.5));
#1010 = VECTOR('',#1011,1.);
#1011 = DIRECTION('',(0.,-1.,2.2E-16));
#1012 = ORIENTED_EDGE('',*,*,#1013,.F.);
#1013 = EDGE_CURVE('',#533,#1006,#1014,.T.);
#1014 = CIRCLE('',#1015,1.);
#1015 = AXIS2_PLACEMENT_3D('',#1016,#1017,#1018);
#1016 = CARTESIAN_POINT('',(1.,-11.6,22.5));
#1017 = DIRECTION('',(-0.,-2.2E-16,-1.));
#1018 = DIRECTION('',(0.,-1.,2.2E-16));
#1019 = ORIENTED_EDGE('',*,*,#540,.T.);
#1020 = ORIENTED_EDGE('',*,*,#1021,.T.);
#1021 = EDGE_CURVE('',#541,#1022,#1024,.T.);
#1022 = VERTEX_POINT('',#1023);
#1023 = CARTESIAN_POINT('',(22.8,-11.6,22.5));
#1024 = CIRCLE('',#1025,1.);
#1025 = AXIS2_PLACEMENT_3D('',#1026,#1027,#1028);
#1026 = CARTESIAN_POINT('',(21.8,-11.6,22.5));
#1027 = DIRECTION('',(0.,2.2E-16,1.));
#1028 = DIRECTION('',(0.,1.,-2.2E-16));
#1029 = ORIENTED_EDGE('',*,*,#1030,.F.);
#1030 = EDGE_CURVE('',#1031,#1022,#1033,.T.);
#1031 = VERTEX_POINT('',#1032);
#1032 = CARTESIAN_POINT('',(22.8,-6.3,22.5));
#1033 = LINE('',#1034,#1035);
#1034 = CARTESIAN_POINT('',(22.8,5.E-15,22.5));
#1035 = VECTOR('',#1036,1.);
#1036 = DIRECTION('',(0.,-1.,2.2E-16));
#1037 = ORIENTED_EDGE('',*,*,#1038,.F.);
#1038 = EDGE_CURVE('',#1039,#1031,#1041,.T.);
#1039 = VERTEX_POINT('',#1040);
#1040 = CARTESIAN_POINT('',(22.8,-1.,22.5));
#1041 = LINE('',#1042,#1043);
#1042 = CARTESIAN_POINT('',(22.8,5.E-15,22.5));
#1043 = VECTOR('',#1044,1.);
#1044 = DIRECTION('',(0.,-1.,2.2E-16));
#1045 = ORIENTED_EDGE('',*,*,#1046,.F.);
#1046 = EDGE_CURVE('',#442,#1039,#1047,.T.);
#1047 = CIRCLE('',#1048,1.);
#1048 = AXIS2_PLACEMENT_3D('',#1049,#1050,#1051);
#1049 = CARTESIAN_POINT('',(21.8,-1.,22.5));
#1050 = DIRECTION('',(0.,-2.2E-16,-1.));
#1051 = DIRECTION('',(0.,1.,-2.2E-16));
#1052 = FACE_BOUND('',#1053,.T.);
#1053 = EDGE_LOOP('',(#1054,#1063,#1072,#1080,#1089));
#1054 = ORIENTED_EDGE('',*,*,#1055,.F.);
#1055 = EDGE_CURVE('',#1031,#1056,#1058,.T.);
#1056 = VERTEX_POINT('',#1057);
#1057 = CARTESIAN_POINT('',(11.661096521962,-3.8,22.5));
#1058 = CIRCLE('',#1059,5.85);
#1059 = AXIS2_PLACEMENT_3D('',#1060,#1061,#1062);
#1060 = CARTESIAN_POINT('',(16.95,-6.3,22.5));
#1061 = DIRECTION('',(0.,0.,1.));
#1062 = DIRECTION('',(1.,0.,0.));
#1063 = ORIENTED_EDGE('',*,*,#1064,.F.);
#1064 = EDGE_CURVE('',#1065,#1031,#1067,.T.);
#1065 = VERTEX_POINT('',#1066);
#1066 = CARTESIAN_POINT('',(11.661096521962,-8.8,22.5));
#1067 = CIRCLE('',#1068,5.85);
#1068 = AXIS2_PLACEMENT_3D('',#1069,#1070,#1071);
#1069 = CARTESIAN_POINT('',(16.95,-6.3,22.5));
#1070 = DIRECTION('',(0.,0.,1.));
#1071 = DIRECTION('',(1.,0.,0.));
#1072 = ORIENTED_EDGE('',*,*,#1073,.F.);
#1073 = EDGE_CURVE('',#1074,#1065,#1076,.T.);
#1074 = VERTEX_POINT('',#1075);
#1075 = CARTESIAN_POINT('',(10.800000049015,-8.8,22.5));
#1076 = LINE('',#1077,#1078);
#1077 = CARTESIAN_POINT('',(10.80000009803,-8.8,22.5));
#1078 = VECTOR('',#1079,1.);
#1079 = DIRECTION('',(1.,0.,0.));
#1080 = ORIENTED_EDGE('',*,*,#1081,.F.);
#1081 = EDGE_CURVE('',#1082,#1074,#1084,.T.);
#1082 = VERTEX_POINT('',#1083);
#1083 = CARTESIAN_POINT('',(10.80000009803,-3.8,22.5));
#1084 = CIRCLE('',#1085,2.5);
#1085 = AXIS2_PLACEMENT_3D('',#1086,#1087,#1088);
#1086 = CARTESIAN_POINT('',(10.8,-6.3,22.5));
#1087 = DIRECTION('',(0.,0.,1.));
#1088 = DIRECTION('',(1.,0.,0.));
#1089 = ORIENTED_EDGE('',*,*,#1090,.F.);
#1090 = EDGE_CURVE('',#1056,#1082,#1091,.T.);
#1091 = LINE('',#1092,#1093);
#1092 = CARTESIAN_POINT('',(11.661096521962,-3.8,22.5));
#1093 = VECTOR('',#1094,1.);
#1094 = DIRECTION('',(-1.,0.,0.));
#1095 = PLANE('',#1096);
#1096 = AXIS2_PLACEMENT_3D('',#1097,#1098,#1099);
#1097 = CARTESIAN_POINT('',(0.,5.E-15,22.5));
#1098 = DIRECTION('',(0.,2.2E-16,1.));
#1099 = DIRECTION('',(1.,0.,0.));
#1100 = ADVANCED_FACE('',(#1101),#1120,.T.);
#1101 = FACE_BOUND('',#1102,.T.);
#1102 = EDGE_LOOP('',(#1103,#1104,#1112,#1119));
#1103 = ORIENTED_EDGE('',*,*,#1046,.T.);
#1104 = ORIENTED_EDGE('',*,*,#1105,.T.);
#1105 = EDGE_CURVE('',#1039,#1106,#1108,.T.);
#1106 = VERTEX_POINT('',#1107);
#1107 = CARTESIAN_POINT('',(22.8,-1.,17.900000000024));
#1108 = LINE('',#1109,#1110);
#1109 = CARTESIAN_POINT('',(22.8,-1.,22.5));
#1110 = VECTOR('',#1111,1.);
#1111 = DIRECTION('',(0.,-2.2E-16,-1.));
#1112 = ORIENTED_EDGE('',*,*,#1113,.F.);
#1113 = EDGE_CURVE('',#450,#1106,#1114,.T.);
#1114 = CIRCLE('',#1115,1.);
#1115 = AXIS2_PLACEMENT_3D('',#1116,#1117,#1118);
#1116 = CARTESIAN_POINT('',(21.8,-1.,17.900000000024));
#1117 = DIRECTION('',(0.,-2.2E-16,-1.));
#1118 = DIRECTION('',(0.,1.,-2.2E-16));
#1119 = ORIENTED_EDGE('',*,*,#449,.F.);
#1120 = CYLINDRICAL_SURFACE('',#1121,1.);
#1121 = AXIS2_PLACEMENT_3D('',#1122,#1123,#1124);
#1122 = CARTESIAN_POINT('',(21.8,-1.,22.5));
#1123 = DIRECTION('',(0.,-2.2E-16,-1.));
#1124 = DIRECTION('',(0.,1.,-2.2E-16));
#1125 = ADVANCED_FACE('',(#1126),#1205,.T.);
#1126 = FACE_BOUND('',#1127,.T.);
#1127 = EDGE_LOOP('',(#1128,#1129,#1130,#1131,#1139,#1146,#1147,#1148,
    #1157,#1165,#1173,#1182,#1190,#1198));
#1128 = ORIENTED_EDGE('',*,*,#465,.F.);
#1129 = ORIENTED_EDGE('',*,*,#457,.T.);
#1130 = ORIENTED_EDGE('',*,*,#1113,.T.);
#1131 = ORIENTED_EDGE('',*,*,#1132,.T.);
#1132 = EDGE_CURVE('',#1106,#1133,#1135,.T.);
#1133 = VERTEX_POINT('',#1134);
#1134 = CARTESIAN_POINT('',(22.8,-11.6,17.900000000024));
#1135 = LINE('',#1136,#1137);
#1136 = CARTESIAN_POINT('',(22.8,3.97E-15,17.900000000024));
#1137 = VECTOR('',#1138,1.);
#1138 = DIRECTION('',(0.,-1.,2.2E-16));
#1139 = ORIENTED_EDGE('',*,*,#1140,.F.);
#1140 = EDGE_CURVE('',#549,#1133,#1141,.T.);
#1141 = CIRCLE('',#1142,1.);
#1142 = AXIS2_PLACEMENT_3D('',#1143,#1144,#1145);
#1143 = CARTESIAN_POINT('',(21.8,-11.6,17.900000000024));
#1144 = DIRECTION('',(0.,2.2E-16,1.));
#1145 = DIRECTION('',(0.,1.,-2.2E-16));
#1146 = ORIENTED_EDGE('',*,*,#556,.F.);
#1147 = ORIENTED_EDGE('',*,*,#564,.T.);
#1148 = ORIENTED_EDGE('',*,*,#1149,.T.);
#1149 = EDGE_CURVE('',#565,#1150,#1152,.T.);
#1150 = VERTEX_POINT('',#1151);
#1151 = CARTESIAN_POINT('',(27.8,-11.6,17.900000000024));
#1152 = CIRCLE('',#1153,1.);
#1153 = AXIS2_PLACEMENT_3D('',#1154,#1155,#1156);
#1154 = CARTESIAN_POINT('',(26.8,-11.6,17.900000000024));
#1155 = DIRECTION('',(0.,2.2E-16,1.));
#1156 = DIRECTION('',(0.,1.,-2.2E-16));
#1157 = ORIENTED_EDGE('',*,*,#1158,.F.);
#1158 = EDGE_CURVE('',#1159,#1150,#1161,.T.);
#1159 = VERTEX_POINT('',#1160);
#1160 = CARTESIAN_POINT('',(27.8,-6.9,17.900000000024));
#1161 = LINE('',#1162,#1163);
#1162 = CARTESIAN_POINT('',(27.8,3.97E-15,17.900000000024));
#1163 = VECTOR('',#1164,1.);
#1164 = DIRECTION('',(0.,-1.,2.2E-16));
#1165 = ORIENTED_EDGE('',*,*,#1166,.F.);
#1166 = EDGE_CURVE('',#1167,#1159,#1169,.T.);
#1167 = VERTEX_POINT('',#1168);
#1168 = CARTESIAN_POINT('',(26.461684396981,-6.9,17.900000000024));
#1169 = LINE('',#1170,#1171);
#1170 = CARTESIAN_POINT('',(26.461684396981,-6.9,17.900000000024));
#1171 = VECTOR('',#1172,1.);
#1172 = DIRECTION('',(1.,0.,0.));
#1173 = ORIENTED_EDGE('',*,*,#1174,.F.);
#1174 = EDGE_CURVE('',#1175,#1167,#1177,.T.);
#1175 = VERTEX_POINT('',#1176);
#1176 = CARTESIAN_POINT('',(26.461684396981,-5.7,17.900000000024));
#1177 = CIRCLE('',#1178,1.05);
#1178 = AXIS2_PLACEMENT_3D('',#1179,#1180,#1181);
#1179 = CARTESIAN_POINT('',(25.6,-6.3,17.900000000024));
#1180 = DIRECTION('',(0.,0.,1.));
#1181 = DIRECTION('',(1.,0.,0.));
#1182 = ORIENTED_EDGE('',*,*,#1183,.F.);
#1183 = EDGE_CURVE('',#1184,#1175,#1186,.T.);
#1184 = VERTEX_POINT('',#1185);
#1185 = CARTESIAN_POINT('',(27.8,-5.7,17.900000000024));
#1186 = LINE('',#1187,#1188);
#1187 = CARTESIAN_POINT('',(27.8,-5.7,17.900000000024));
#1188 = VECTOR('',#1189,1.);
#1189 = DIRECTION('',(-1.,0.,0.));
#1190 = ORIENTED_EDGE('',*,*,#1191,.F.);
#1191 = EDGE_CURVE('',#1192,#1184,#1194,.T.);
#1192 = VERTEX_POINT('',#1193);
#1193 = CARTESIAN_POINT('',(27.8,-1.,17.900000000024));
#1194 = LINE('',#1195,#1196);
#1195 = CARTESIAN_POINT('',(27.8,3.97E-15,17.900000000024));
#1196 = VECTOR('',#1197,1.);
#1197 = DIRECTION('',(0.,-1.,2.2E-16));
#1198 = ORIENTED_EDGE('',*,*,#1199,.F.);
#1199 = EDGE_CURVE('',#466,#1192,#1200,.T.);
#1200 = CIRCLE('',#1201,1.);
#1201 = AXIS2_PLACEMENT_3D('',#1202,#1203,#1204);
#1202 = CARTESIAN_POINT('',(26.8,-1.,17.900000000024));
#1203 = DIRECTION('',(0.,-2.2E-16,-1.));
#1204 = DIRECTION('',(0.,1.,-2.2E-16));
#1205 = PLANE('',#1206);
#1206 = AXIS2_PLACEMENT_3D('',#1207,#1208,#1209);
#1207 = CARTESIAN_POINT('',(22.8,3.97E-15,17.900000000024));
#1208 = DIRECTION('',(0.,2.2E-16,1.));
#1209 = DIRECTION('',(1.,0.,0.));
#1210 = ADVANCED_FACE('',(#1211),#1222,.T.);
#1211 = FACE_BOUND('',#1212,.T.);
#1212 = EDGE_LOOP('',(#1213,#1214,#1220,#1221));
#1213 = ORIENTED_EDGE('',*,*,#1199,.T.);
#1214 = ORIENTED_EDGE('',*,*,#1215,.T.);
#1215 = EDGE_CURVE('',#1192,#782,#1216,.T.);
#1216 = LINE('',#1217,#1218);
#1217 = CARTESIAN_POINT('',(27.8,-1.,17.900000000024));
#1218 = VECTOR('',#1219,1.);
#1219 = DIRECTION('',(0.,-2.2E-16,-1.));
#1220 = ORIENTED_EDGE('',*,*,#781,.F.);
#1221 = ORIENTED_EDGE('',*,*,#473,.F.);
#1222 = CYLINDRICAL_SURFACE('',#1223,1.);
#1223 = AXIS2_PLACEMENT_3D('',#1224,#1225,#1226);
#1224 = CARTESIAN_POINT('',(26.8,-1.,17.900000000024));
#1225 = DIRECTION('',(0.,-2.2E-16,-1.));
#1226 = DIRECTION('',(0.,1.,-2.2E-16));
#1227 = ADVANCED_FACE('',(#1228),#1239,.T.);
#1228 = FACE_BOUND('',#1229,.F.);
#1229 = EDGE_LOOP('',(#1230,#1231,#1237,#1238));
#1230 = ORIENTED_EDGE('',*,*,#945,.T.);
#1231 = ORIENTED_EDGE('',*,*,#1232,.T.);
#1232 = EDGE_CURVE('',#946,#1006,#1233,.T.);
#1233 = LINE('',#1234,#1235);
#1234 = CARTESIAN_POINT('',(-2.2E-16,-11.6,17.900000000027));
#1235 = VECTOR('',#1236,1.);
#1236 = DIRECTION('',(0.,2.2E-16,1.));
#1237 = ORIENTED_EDGE('',*,*,#1013,.F.);
#1238 = ORIENTED_EDGE('',*,*,#532,.F.);
#1239 = CYLINDRICAL_SURFACE('',#1240,1.);
#1240 = AXIS2_PLACEMENT_3D('',#1241,#1242,#1243);
#1241 = CARTESIAN_POINT('',(1.,-11.6,17.900000000027));
#1242 = DIRECTION('',(0.,2.2E-16,1.));
#1243 = DIRECTION('',(0.,-1.,2.2E-16));
#1244 = ADVANCED_FACE('',(#1245),#1256,.T.);
#1245 = FACE_BOUND('',#1246,.F.);
#1246 = EDGE_LOOP('',(#1247,#1248,#1254,#1255));
#1247 = ORIENTED_EDGE('',*,*,#1021,.T.);
#1248 = ORIENTED_EDGE('',*,*,#1249,.T.);
#1249 = EDGE_CURVE('',#1022,#1133,#1250,.T.);
#1250 = LINE('',#1251,#1252);
#1251 = CARTESIAN_POINT('',(22.8,-11.6,22.5));
#1252 = VECTOR('',#1253,1.);
#1253 = DIRECTION('',(0.,-2.2E-16,-1.));
#1254 = ORIENTED_EDGE('',*,*,#1140,.F.);
#1255 = ORIENTED_EDGE('',*,*,#548,.F.);
#1256 = CYLINDRICAL_SURFACE('',#1257,1.);
#1257 = AXIS2_PLACEMENT_3D('',#1258,#1259,#1260);
#1258 = CARTESIAN_POINT('',(21.8,-11.6,22.5));
#1259 = DIRECTION('',(0.,-2.2E-16,-1.));
#1260 = DIRECTION('',(0.,-1.,2.2E-16));
#1261 = ADVANCED_FACE('',(#1262),#1273,.T.);
#1262 = FACE_BOUND('',#1263,.F.);
#1263 = EDGE_LOOP('',(#1264,#1265,#1271,#1272));
#1264 = ORIENTED_EDGE('',*,*,#1149,.T.);
#1265 = ORIENTED_EDGE('',*,*,#1266,.T.);
#1266 = EDGE_CURVE('',#1150,#824,#1267,.T.);
#1267 = LINE('',#1268,#1269);
#1268 = CARTESIAN_POINT('',(27.8,-11.6,17.900000000024));
#1269 = VECTOR('',#1270,1.);
#1270 = DIRECTION('',(0.,-2.2E-16,-1.));
#1271 = ORIENTED_EDGE('',*,*,#831,.F.);
#1272 = ORIENTED_EDGE('',*,*,#572,.F.);
#1273 = CYLINDRICAL_SURFACE('',#1274,1.);
#1274 = AXIS2_PLACEMENT_3D('',#1275,#1276,#1277);
#1275 = CARTESIAN_POINT('',(26.8,-11.6,17.900000000024));
#1276 = DIRECTION('',(0.,-2.2E-16,-1.));
#1277 = DIRECTION('',(0.,-1.,2.2E-16));
#1278 = ADVANCED_FACE('',(#1279),#1290,.T.);
#1279 = FACE_BOUND('',#1280,.T.);
#1280 = EDGE_LOOP('',(#1281,#1282,#1283,#1284));
#1281 = ORIENTED_EDGE('',*,*,#790,.F.);
#1282 = ORIENTED_EDGE('',*,*,#1215,.F.);
#1283 = ORIENTED_EDGE('',*,*,#1191,.T.);
#1284 = ORIENTED_EDGE('',*,*,#1285,.T.);
#1285 = EDGE_CURVE('',#1184,#791,#1286,.T.);
#1286 = LINE('',#1287,#1288);
#1287 = CARTESIAN_POINT('',(27.8,-5.7,17.900000000024));
#1288 = VECTOR('',#1289,1.);
#1289 = DIRECTION('',(-0.,-0.,-1.));
#1290 = PLANE('',#1291);
#1291 = AXIS2_PLACEMENT_3D('',#1292,#1293,#1294);
#1292 = CARTESIAN_POINT('',(27.8,3.97E-15,17.900000000024));
#1293 = DIRECTION('',(1.,0.,0.));
#1294 = DIRECTION('',(0.,-2.2E-16,-1.));
#1295 = ADVANCED_FACE('',(#1296),#1307,.F.);
#1296 = FACE_BOUND('',#1297,.F.);
#1297 = EDGE_LOOP('',(#1298,#1299,#1300,#1301));
#1298 = ORIENTED_EDGE('',*,*,#1183,.F.);
#1299 = ORIENTED_EDGE('',*,*,#1285,.T.);
#1300 = ORIENTED_EDGE('',*,*,#798,.T.);
#1301 = ORIENTED_EDGE('',*,*,#1302,.F.);
#1302 = EDGE_CURVE('',#1175,#799,#1303,.T.);
#1303 = LINE('',#1304,#1305);
#1304 = CARTESIAN_POINT('',(26.461684396981,-5.7,17.900000000024));
#1305 = VECTOR('',#1306,1.);
#1306 = DIRECTION('',(-0.,-0.,-1.));
#1307 = PLANE('',#1308);
#1308 = AXIS2_PLACEMENT_3D('',#1309,#1310,#1311);
#1309 = CARTESIAN_POINT('',(27.8,-5.7,17.900000000024));
#1310 = DIRECTION('',(0.,1.,0.));
#1311 = DIRECTION('',(-1.,0.,0.));
#1312 = ADVANCED_FACE('',(#1313),#1324,.F.);
#1313 = FACE_BOUND('',#1314,.F.);
#1314 = EDGE_LOOP('',(#1315,#1316,#1317,#1318));
#1315 = ORIENTED_EDGE('',*,*,#1174,.F.);
#1316 = ORIENTED_EDGE('',*,*,#1302,.T.);
#1317 = ORIENTED_EDGE('',*,*,#806,.T.);
#1318 = ORIENTED_EDGE('',*,*,#1319,.F.);
#1319 = EDGE_CURVE('',#1167,#807,#1320,.T.);
#1320 = LINE('',#1321,#1322);
#1321 = CARTESIAN_POINT('',(26.461684396981,-6.9,17.900000000024));
#1322 = VECTOR('',#1323,1.);
#1323 = DIRECTION('',(-0.,-0.,-1.));
#1324 = CYLINDRICAL_SURFACE('',#1325,1.05);
#1325 = AXIS2_PLACEMENT_3D('',#1326,#1327,#1328);
#1326 = CARTESIAN_POINT('',(25.6,-6.3,17.900000000024));
#1327 = DIRECTION('',(0.,0.,1.));
#1328 = DIRECTION('',(1.,0.,0.));
#1329 = ADVANCED_FACE('',(#1330),#1341,.F.);
#1330 = FACE_BOUND('',#1331,.F.);
#1331 = EDGE_LOOP('',(#1332,#1333,#1334,#1335));
#1332 = ORIENTED_EDGE('',*,*,#1166,.F.);
#1333 = ORIENTED_EDGE('',*,*,#1319,.T.);
#1334 = ORIENTED_EDGE('',*,*,#815,.T.);
#1335 = ORIENTED_EDGE('',*,*,#1336,.F.);
#1336 = EDGE_CURVE('',#1159,#816,#1337,.T.);
#1337 = LINE('',#1338,#1339);
#1338 = CARTESIAN_POINT('',(27.8,-6.9,17.900000000024));
#1339 = VECTOR('',#1340,1.);
#1340 = DIRECTION('',(-0.,-0.,-1.));
#1341 = PLANE('',#1342);
#1342 = AXIS2_PLACEMENT_3D('',#1343,#1344,#1345);
#1343 = CARTESIAN_POINT('',(26.461684396981,-6.9,17.900000000024));
#1344 = DIRECTION('',(0.,-1.,0.));
#1345 = DIRECTION('',(1.,0.,0.));
#1346 = ADVANCED_FACE('',(#1347),#1353,.T.);
#1347 = FACE_BOUND('',#1348,.T.);
#1348 = EDGE_LOOP('',(#1349,#1350,#1351,#1352));
#1349 = ORIENTED_EDGE('',*,*,#823,.F.);
#1350 = ORIENTED_EDGE('',*,*,#1336,.F.);
#1351 = ORIENTED_EDGE('',*,*,#1158,.T.);
#1352 = ORIENTED_EDGE('',*,*,#1266,.T.);
#1353 = PLANE('',#1354);
#1354 = AXIS2_PLACEMENT_3D('',#1355,#1356,#1357);
#1355 = CARTESIAN_POINT('',(27.8,3.97E-15,17.900000000024));
#1356 = DIRECTION('',(1.,0.,0.));
#1357 = DIRECTION('',(0.,-2.2E-16,-1.));
#1358 = ADVANCED_FACE('',(#1359),#1362,.T.);
#1359 = FACE_BOUND('',#1360,.T.);
#1360 = EDGE_LOOP('',(#1361));
#1361 = ORIENTED_EDGE('',*,*,#860,.T.);
#1362 = PLANE('',#1363);
#1363 = AXIS2_PLACEMENT_3D('',#1364,#1365,#1366);
#1364 = CARTESIAN_POINT('',(27.8,-6.29129,5.65));
#1365 = DIRECTION('',(1.,0.,0.));
#1366 = DIRECTION('',(0.,0.,1.));
#1367 = ADVANCED_FACE('',(#1368),#1372,.T.);
#1368 = FACE_BOUND('',#1369,.T.);
#1369 = EDGE_LOOP('',(#1370,#1371));
#1370 = ORIENTED_EDGE('',*,*,#886,.T.);
#1371 = ORIENTED_EDGE('',*,*,#893,.T.);
#1372 = PLANE('',#1373);
#1373 = AXIS2_PLACEMENT_3D('',#1374,#1375,#1376);
#1374 = CARTESIAN_POINT('',(27.8,-6.29129,5.65));
#1375 = DIRECTION('',(1.,0.,0.));
#1376 = DIRECTION('',(0.,0.,1.));
#1377 = ADVANCED_FACE('',(#1378),#1381,.T.);
#1378 = FACE_BOUND('',#1379,.T.);
#1379 = EDGE_LOOP('',(#1380));
#1380 = ORIENTED_EDGE('',*,*,#917,.T.);
#1381 = PLANE('',#1382);
#1382 = AXIS2_PLACEMENT_3D('',#1383,#1384,#1385);
#1383 = CARTESIAN_POINT('',(27.8,-6.29129,5.65));
#1384 = DIRECTION('',(1.,0.,0.));
#1385 = DIRECTION('',(0.,0.,1.));
#1386 = ADVANCED_FACE('',(#1387),#1393,.T.);
#1387 = FACE_BOUND('',#1388,.T.);
#1388 = EDGE_LOOP('',(#1389,#1390,#1391,#1392));
#1389 = ORIENTED_EDGE('',*,*,#954,.T.);
#1390 = ORIENTED_EDGE('',*,*,#1232,.T.);
#1391 = ORIENTED_EDGE('',*,*,#1005,.F.);
#1392 = ORIENTED_EDGE('',*,*,#979,.F.);
#1393 = PLANE('',#1394);
#1394 = AXIS2_PLACEMENT_3D('',#1395,#1396,#1397);
#1395 = CARTESIAN_POINT('',(0.,3.97E-15,17.900000000027));
#1396 = DIRECTION('',(-1.,0.,0.));
#1397 = DIRECTION('',(0.,2.2E-16,1.));
#1398 = ADVANCED_FACE('',(#1399),#1406,.T.);
#1399 = FACE_BOUND('',#1400,.T.);
#1400 = EDGE_LOOP('',(#1401,#1402,#1403,#1404,#1405));
#1401 = ORIENTED_EDGE('',*,*,#1038,.T.);
#1402 = ORIENTED_EDGE('',*,*,#1030,.T.);
#1403 = ORIENTED_EDGE('',*,*,#1249,.T.);
#1404 = ORIENTED_EDGE('',*,*,#1132,.F.);
#1405 = ORIENTED_EDGE('',*,*,#1105,.F.);
#1406 = PLANE('',#1407);
#1407 = AXIS2_PLACEMENT_3D('',#1408,#1409,#1410);
#1408 = CARTESIAN_POINT('',(22.8,5.E-15,22.5));
#1409 = DIRECTION('',(1.,0.,0.));
#1410 = DIRECTION('',(0.,-2.2E-16,-1.));
#1411 = ADVANCED_FACE('',(#1412),#1439,.T.);
#1412 = FACE_BOUND('',#1413,.F.);
#1413 = EDGE_LOOP('',(#1414,#1422,#1431,#1437,#1438));
#1414 = ORIENTED_EDGE('',*,*,#1415,.T.);
#1415 = EDGE_CURVE('',#1065,#1416,#1418,.T.);
#1416 = VERTEX_POINT('',#1417);
#1417 = CARTESIAN_POINT('',(11.661096521962,-8.8,26.5));
#1418 = LINE('',#1419,#1420);
#1419 = CARTESIAN_POINT('',(11.661096521962,-8.8,22.5));
#1420 = VECTOR('',#1421,1.);
#1421 = DIRECTION('',(0.,0.,1.));
#1422 = ORIENTED_EDGE('',*,*,#1423,.T.);
#1423 = EDGE_CURVE('',#1416,#1424,#1426,.T.);
#1424 = VERTEX_POINT('',#1425);
#1425 = CARTESIAN_POINT('',(11.661096521962,-3.8,26.5));
#1426 = CIRCLE('',#1427,5.85);
#1427 = AXIS2_PLACEMENT_3D('',#1428,#1429,#1430);
#1428 = CARTESIAN_POINT('',(16.95,-6.3,26.5));
#1429 = DIRECTION('',(0.,0.,1.));
#1430 = DIRECTION('',(1.,0.,0.));
#1431 = ORIENTED_EDGE('',*,*,#1432,.F.);
#1432 = EDGE_CURVE('',#1056,#1424,#1433,.T.);
#1433 = LINE('',#1434,#1435);
#1434 = CARTESIAN_POINT('',(11.661096521962,-3.8,22.5));
#1435 = VECTOR('',#1436,1.);
#1436 = DIRECTION('',(0.,0.,1.));
#1437 = ORIENTED_EDGE('',*,*,#1055,.F.);
#1438 = ORIENTED_EDGE('',*,*,#1064,.F.);
#1439 = CYLINDRICAL_SURFACE('',#1440,5.85);
#1440 = AXIS2_PLACEMENT_3D('',#1441,#1442,#1443);
#1441 = CARTESIAN_POINT('',(16.95,-6.3,22.5));
#1442 = DIRECTION('',(-0.,-0.,-1.));
#1443 = DIRECTION('',(1.,0.,0.));
#1444 = ADVANCED_FACE('',(#1445),#1463,.F.);
#1445 = FACE_BOUND('',#1446,.F.);
#1446 = EDGE_LOOP('',(#1447,#1448,#1456,#1462));
#1447 = ORIENTED_EDGE('',*,*,#1432,.T.);
#1448 = ORIENTED_EDGE('',*,*,#1449,.T.);
#1449 = EDGE_CURVE('',#1424,#1450,#1452,.T.);
#1450 = VERTEX_POINT('',#1451);
#1451 = CARTESIAN_POINT('',(10.80000009803,-3.8,26.5));
#1452 = LINE('',#1453,#1454);
#1453 = CARTESIAN_POINT('',(11.661096521962,-3.8,26.5));
#1454 = VECTOR('',#1455,1.);
#1455 = DIRECTION('',(-1.,0.,0.));
#1456 = ORIENTED_EDGE('',*,*,#1457,.F.);
#1457 = EDGE_CURVE('',#1082,#1450,#1458,.T.);
#1458 = LINE('',#1459,#1460);
#1459 = CARTESIAN_POINT('',(10.80000009803,-3.8,22.5));
#1460 = VECTOR('',#1461,1.);
#1461 = DIRECTION('',(0.,0.,1.));
#1462 = ORIENTED_EDGE('',*,*,#1090,.F.);
#1463 = PLANE('',#1464);
#1464 = AXIS2_PLACEMENT_3D('',#1465,#1466,#1467);
#1465 = CARTESIAN_POINT('',(11.661096521962,-3.8,22.5));
#1466 = DIRECTION('',(0.,-1.,0.));
#1467 = DIRECTION('',(-1.,0.,0.));
#1468 = ADVANCED_FACE('',(#1469),#1488,.T.);
#1469 = FACE_BOUND('',#1470,.F.);
#1470 = EDGE_LOOP('',(#1471,#1472,#1481,#1487));
#1471 = ORIENTED_EDGE('',*,*,#1457,.T.);
#1472 = ORIENTED_EDGE('',*,*,#1473,.T.);
#1473 = EDGE_CURVE('',#1450,#1474,#1476,.T.);
#1474 = VERTEX_POINT('',#1475);
#1475 = CARTESIAN_POINT('',(10.800000049015,-8.8,26.5));
#1476 = CIRCLE('',#1477,2.5);
#1477 = AXIS2_PLACEMENT_3D('',#1478,#1479,#1480);
#1478 = CARTESIAN_POINT('',(10.8,-6.3,26.5));
#1479 = DIRECTION('',(0.,0.,1.));
#1480 = DIRECTION('',(1.,0.,0.));
#1481 = ORIENTED_EDGE('',*,*,#1482,.F.);
#1482 = EDGE_CURVE('',#1074,#1474,#1483,.T.);
#1483 = LINE('',#1484,#1485);
#1484 = CARTESIAN_POINT('',(10.800000049015,-8.8,22.5));
#1485 = VECTOR('',#1486,1.);
#1486 = DIRECTION('',(0.,0.,1.));
#1487 = ORIENTED_EDGE('',*,*,#1081,.F.);
#1488 = CYLINDRICAL_SURFACE('',#1489,2.5);
#1489 = AXIS2_PLACEMENT_3D('',#1490,#1491,#1492);
#1490 = CARTESIAN_POINT('',(10.8,-6.3,22.5));
#1491 = DIRECTION('',(-0.,-0.,-1.));
#1492 = DIRECTION('',(1.,0.,0.));
#1493 = ADVANCED_FACE('',(#1494),#1505,.F.);
#1494 = FACE_BOUND('',#1495,.F.);
#1495 = EDGE_LOOP('',(#1496,#1497,#1503,#1504));
#1496 = ORIENTED_EDGE('',*,*,#1482,.T.);
#1497 = ORIENTED_EDGE('',*,*,#1498,.T.);
#1498 = EDGE_CURVE('',#1474,#1416,#1499,.T.);
#1499 = LINE('',#1500,#1501);
#1500 = CARTESIAN_POINT('',(10.80000009803,-8.8,26.5));
#1501 = VECTOR('',#1502,1.);
#1502 = DIRECTION('',(1.,0.,0.));
#1503 = ORIENTED_EDGE('',*,*,#1415,.F.);
#1504 = ORIENTED_EDGE('',*,*,#1073,.F.);
#1505 = PLANE('',#1506);
#1506 = AXIS2_PLACEMENT_3D('',#1507,#1508,#1509);
#1507 = CARTESIAN_POINT('',(10.80000009803,-8.8,22.5));
#1508 = DIRECTION('',(0.,1.,0.));
#1509 = DIRECTION('',(1.,0.,0.));
#1510 = ADVANCED_FACE('',(#1511,#1517),#1528,.T.);
#1511 = FACE_BOUND('',#1512,.T.);
#1512 = EDGE_LOOP('',(#1513,#1514,#1515,#1516));
#1513 = ORIENTED_EDGE('',*,*,#1423,.T.);
#1514 = ORIENTED_EDGE('',*,*,#1449,.T.);
#1515 = ORIENTED_EDGE('',*,*,#1473,.T.);
#1516 = ORIENTED_EDGE('',*,*,#1498,.T.);
#1517 = FACE_BOUND('',#1518,.T.);
#1518 = EDGE_LOOP('',(#1519));
#1519 = ORIENTED_EDGE('',*,*,#1520,.F.);
#1520 = EDGE_CURVE('',#1521,#1521,#1523,.T.);
#1521 = VERTEX_POINT('',#1522);
#1522 = CARTESIAN_POINT('',(19.3,-6.3,26.5));
#1523 = CIRCLE('',#1524,2.35);
#1524 = AXIS2_PLACEMENT_3D('',#1525,#1526,#1527);
#1525 = CARTESIAN_POINT('',(16.95,-6.3,26.5));
#1526 = DIRECTION('',(0.,0.,1.));
#1527 = DIRECTION('',(1.,0.,0.));
#1528 = PLANE('',#1529);
#1529 = AXIS2_PLACEMENT_3D('',#1530,#1531,#1532);
#1530 = CARTESIAN_POINT('',(15.625866671554,-6.29999999422,26.5));
#1531 = DIRECTION('',(0.,0.,1.));
#1532 = DIRECTION('',(1.,0.,0.));
#1533 = ADVANCED_FACE('',(#1534),#1553,.T.);
#1534 = FACE_BOUND('',#1535,.F.);
#1535 = EDGE_LOOP('',(#1536,#1544,#1551,#1552));
#1536 = ORIENTED_EDGE('',*,*,#1537,.T.);
#1537 = EDGE_CURVE('',#1521,#1538,#1540,.T.);
#1538 = VERTEX_POINT('',#1539);
#1539 = CARTESIAN_POINT('',(19.3,-6.3,29.5));
#1540 = LINE('',#1541,#1542);
#1541 = CARTESIAN_POINT('',(19.3,-6.3,26.5));
#1542 = VECTOR('',#1543,1.);
#1543 = DIRECTION('',(0.,0.,1.));
#1544 = ORIENTED_EDGE('',*,*,#1545,.T.);
#1545 = EDGE_CURVE('',#1538,#1538,#1546,.T.);
#1546 = CIRCLE('',#1547,2.35);
#1547 = AXIS2_PLACEMENT_3D('',#1548,#1549,#1550);
#1548 = CARTESIAN_POINT('',(16.95,-6.3,29.5));
#1549 = DIRECTION('',(0.,0.,1.));
#1550 = DIRECTION('',(1.,0.,0.));
#1551 = ORIENTED_EDGE('',*,*,#1537,.F.);
#1552 = ORIENTED_EDGE('',*,*,#1520,.F.);
#1553 = CYLINDRICAL_SURFACE('',#1554,2.35);
#1554 = AXIS2_PLACEMENT_3D('',#1555,#1556,#1557);
#1555 = CARTESIAN_POINT('',(16.95,-6.3,26.5));
#1556 = DIRECTION('',(-0.,-0.,-1.));
#1557 = DIRECTION('',(1.,0.,0.));
#1558 = ADVANCED_FACE('',(#1559),#1562,.T.);
#1559 = FACE_BOUND('',#1560,.T.);
#1560 = EDGE_LOOP('',(#1561));
#1561 = ORIENTED_EDGE('',*,*,#1545,.T.);
#1562 = PLANE('',#1563);
#1563 = AXIS2_PLACEMENT_3D('',#1564,#1565,#1566);
#1564 = CARTESIAN_POINT('',(16.95,-6.3,29.5));
#1565 = DIRECTION('',(0.,0.,1.));
#1566 = DIRECTION('',(1.,0.,0.));
#1567 = ( GEOMETRIC_REPRESENTATION_CONTEXT(3) 
GLOBAL_UNCERTAINTY_ASSIGNED_CONTEXT((#1571)) 
GLOBAL_UNIT_ASSIGNED_CONTEXT((#1568,#1569,#1570)) REPRESENTATION_CONTEXT
('Context #1','3D Context with UNIT and UNCERTAINTY') );
#1568 = ( LENGTH_UNIT() NAMED_UNIT(*) SI_UNIT(.MILLI.,.METRE.) );
#1569 = ( NAMED_UNIT(*) PLANE_ANGLE_UNIT() SI_UNIT($,.RADIAN.) );
#1570 = ( NAMED_UNIT(*) SI_UNIT($,.STERADIAN.) SOLID_ANGLE_UNIT() );
#1571 = UNCERTAINTY_MEASURE_WITH_UNIT(LENGTH_MEASURE(5.E-07),#1568,
  'distance_accuracy_value','confusion accuracy');
#1572 = PRODUCT_RELATED_PRODUCT_CATEGORY('part',$,(#7));
#1573 = MECHANICAL_DESIGN_GEOMETRIC_PRESENTATION_REPRESENTATION('',(
    #1574),#1567);
#1574 = STYLED_ITEM('color',(#1575),#15);
#1575 = PRESENTATION_STYLE_ASSIGNMENT((#1576,#1584));
#1576 = SURFACE_STYLE_USAGE(.BOTH.,#1577);
#1577 = SURFACE_SIDE_STYLE('',(#1578,#1582));
#1578 = SURFACE_STYLE_FILL_AREA(#1579);
#1579 = FILL_AREA_STYLE('',(#1580));
#1580 = FILL_AREA_STYLE_COLOUR('',#1581);
#1581 = COLOUR_RGB('',0.,0.333333345507,1.);
#1582 = SURFACE_STYLE_RENDERING_WITH_PROPERTIES(.NORMAL_SHADING.,#1581,(
    #1583));
#1583 = SURFACE_STYLE_TRANSPARENT(0.699999988079);
#1584 = CURVE_STYLE('',#1585,POSITIVE_LENGTH_MEASURE(0.1),#1586);
#1585 = DRAUGHTING_PRE_DEFINED_CURVE_FONT('continuous');
#1586 = COLOUR_RGB('',9.803921802644E-02,9.803921802644E-02,
  9.803921802644E-02);
ENDSEC;
END-ISO-10303-21;
